<svg width="257" height="8" viewBox="0 0 257 8" fill="none" xmlns="http://www.w3.org/2000/svg">
<path d="M5.57778 4.09676C10.8794 2.83986 14.5823 2.43166 19.5533 1.54839C21.0065 1.29016 22.5205 1.01724 24.0796 0.733225C29.1411 -0.203256 34.8518 -0.287467 40.3439 0.742571C46.0356 1.79572 51.6839 2.83452 56.6838 3.77142C56.6967 3.77384 56.7097 3.77625 56.7226 3.77866C61.7284 4.71567 66.9578 4.72686 71.9953 3.79188C75.3081 3.1792 78.6118 2.5687 81.8869 1.96295C82.3181 1.88315 82.5807 1.86336 82.7762 1.82721C84.2595 1.55294 86.5479 1.10888 88.3365 0.770257C88.7809 0.686148 89.1964 0.615336 89.5636 0.55815C93.5292 -0.192675 100.587 -0.0684455 104.193 0.728412C104.323 0.752427 104.453 0.777034 104.583 0.802159C105.948 1.06721 107.276 1.3246 107.796 1.48547C108.341 1.59084 108.65 1.58572 108.793 1.60903C108.795 1.60939 108.797 1.60976 108.798 1.61012C109.259 1.6856 110.411 1.94472 110.667 1.98984C110.705 1.99657 110.478 1.90857 111.096 2.03778C111.151 2.04924 111.094 2.06964 111.617 2.16767C111.753 2.19318 113.509 2.47372 114.009 2.56421C115.493 2.83289 118.804 3.4801 120.914 3.87989C121.163 3.92714 121.395 3.96852 121.605 4.00403C121.901 4.05392 122.075 4.0638 122.389 4.11086C122.551 4.1352 122.791 4.18876 122.841 4.19547C123.061 4.22836 124.029 4.256 123.665 4.3868C124.67 4.48934 124.38 4.39488 124.407 4.3619C125.496 4.46369 126.019 4.56818 126.309 4.49915C129.634 4.68768 132.983 4.47623 136.26 3.87041C138.334 3.48707 140.408 3.10373 142.482 2.72039C142.481 2.70622 142.48 2.69206 142.479 2.6779C144.094 2.43356 144.627 2.23712 145.558 2.14642C146.12 2.02323 146.682 1.90003 147.243 1.77683C149.027 1.45066 150.809 1.12278 152.591 0.793568C157.953 -0.199668 163.489 -0.198961 168.834 0.794858C174.294 1.80765 179.743 2.81396 185.174 3.82275C187.139 4.18764 189.127 4.41147 191.119 4.49354C191.716 4.51507 191.865 4.55506 192.852 4.55916C193.943 4.56185 195.474 4.46917 196.902 4.32656C197.905 4.23136 199.288 4.06366 200.505 3.8431C200.817 3.78726 201.119 3.73272 201.402 3.68066C201.723 3.62165 201.952 3.55961 201.988 3.55297C202.201 3.51401 202.217 3.54158 202.423 3.50393C202.67 3.45882 202.964 3.38128 203.249 3.32944C204.314 3.13553 205.473 2.91136 205.607 2.8867C206.257 2.76826 206.406 2.77041 206.459 2.76076C207.182 2.62942 206.906 2.65389 207.087 2.62181C208.021 2.45554 208.693 2.3975 209.959 2.09638C209.928 2.12705 209.898 2.15773 209.868 2.18841C210.848 2.01942 210.19 2.07578 210.388 2.02683C210.469 2.0073 212.574 1.62211 212.737 1.59293C213.303 1.49152 213.324 1.52082 213.373 1.51213C213.492 1.49093 214.908 1.18887 215.642 1.08075C216.511 0.952882 215.508 1.20788 215.724 1.18014C215.761 1.17547 216.662 1.00011 216.787 0.997921C216.925 0.994936 216.144 1.14032 216.158 1.14732C216.163 1.14996 216.571 1.09006 216.889 1.04978C217.147 1.01669 217.348 0.99876 217.237 1.03223C217.193 1.0472 217.069 1.07281 216.899 1.10584C216.318 1.21884 215.187 1.40818 214.899 1.47348C214.838 1.48735 214.961 1.50349 214.907 1.51505C214.689 1.56102 210.636 2.31915 210.45 2.34756C210.658 2.29093 210.865 2.23429 211.073 2.17765C210.792 2.22833 210.511 2.279 210.23 2.32968C210.627 2.24136 211.023 2.15303 211.42 2.06471C210.8 2.03368 209.041 2.51099 208.981 2.5955C208.955 2.63418 210.062 2.51446 209.056 2.75325C209.212 2.7328 209.368 2.71235 209.524 2.6919C209.839 2.61864 210.155 2.54538 210.471 2.47212C210.257 2.50302 210.044 2.53392 209.83 2.56482C209.906 2.5404 209.983 2.51599 210.059 2.49157C210.651 2.36465 211.243 2.23772 211.835 2.11079C212.143 2.06092 212.084 2.10185 212.296 2.06819C214.932 1.64906 213.204 1.87857 214.924 1.57084C215.172 1.54064 215.42 1.51044 215.668 1.48025C215.582 1.43795 216.159 1.35494 216.917 1.20117C217.028 1.17876 217.142 1.15532 217.259 1.13083C217.151 1.17177 217.043 1.21312 216.934 1.25488C218.287 0.963364 221.08 0.7699 220.318 0.73792C220.633 0.714317 220.949 0.694146 221.265 0.677406C221.529 0.635752 221.794 0.596499 222.06 0.559666C222.428 0.53738 222.797 0.519761 223.167 0.506812C223.169 0.51711 223.171 0.527408 223.173 0.537706C222.879 0.549802 222.585 0.564863 222.291 0.582887C222.513 0.600962 222.736 0.620731 222.957 0.642193C223.174 0.626998 223.39 0.613412 223.607 0.601436C222.696 0.603895 223.893 0.51008 224.184 0.466825C224.953 0.438278 225.444 0.501044 225.701 0.507339C225.822 0.504714 227.252 0.461858 226.689 0.545774C227.422 0.561962 228.156 0.596615 228.888 0.649723C229.174 0.683478 229.459 0.720036 229.743 0.759374C229.12 0.739284 230.903 0.99868 229.583 0.870964C228.597 0.784726 228.356 0.727076 227.887 0.69361C227.464 0.666141 227.239 0.684307 226.779 0.66579C223.682 0.557807 221.149 0.710351 218.237 1.13849C217.751 1.2118 217.306 1.30052 216.948 1.36949C216.883 1.38201 216.821 1.3937 216.762 1.40438C216.335 1.48173 216.863 1.34382 216.32 1.45468C215.751 1.57117 215.633 1.62525 215.482 1.65406C215.389 1.67194 215.086 1.69963 214.812 1.75078C213.686 1.96099 212.042 2.29597 211.882 2.32568C211.702 2.35911 208.514 2.92842 208.361 2.9523C208.28 2.9649 208.428 2.83061 207.747 3.07141C207.529 3.11433 207.31 3.15724 207.092 3.20016C207.123 3.17296 207.155 3.14576 207.186 3.11856C205.904 3.43873 206.342 3.3118 205.094 3.55136C203.797 3.80015 202.232 4.09285 200.608 4.39504C198.521 4.78779 196.305 5.01185 194.45 5.08268C193.719 5.10945 193.44 5.14163 192.574 5.14115C191.767 5.15366 189.675 4.95798 190.124 5.08542C188.345 4.8685 188.044 4.96663 187.166 4.7594C187.057 4.75878 186.947 4.75773 186.838 4.75626C186.063 4.59398 185.718 4.56064 185.056 4.45459C184.9 4.429 184.726 4.39959 184.525 4.36351C184.068 4.28127 184.606 4.31669 183.671 4.21452C183.495 4.17638 183.32 4.13824 183.145 4.1001C183.189 4.09251 183.232 4.08493 183.276 4.07734C182.249 3.89846 182.185 3.87819 182.291 3.95705C181.798 3.85429 181.306 3.75154 180.813 3.64878C180.748 3.65602 180.683 3.66326 180.618 3.6705C180.713 3.70336 182.668 4.06803 185.047 4.50528C188.41 5.17814 192.717 5.23467 193.637 5.17563C195.482 5.22663 199.159 4.76475 200.614 4.4633C200.616 4.4629 200.618 4.4625 200.62 4.4621C201.21 4.35656 201.481 4.34942 202.341 4.19393C203.205 4.03789 204.283 3.79667 204.742 3.7095C206.272 3.41889 213.524 2.07317 208.603 3.04684C208.748 3.041 208.894 3.03516 209.04 3.02932C210.986 2.59291 210.284 2.76878 211.912 2.47237C212.597 2.34763 214.216 1.99752 214.143 2.10824C212.875 2.36309 211.519 2.58533 210.414 2.79311C210.304 2.81372 209.004 3.10093 208.328 3.21509C207.719 3.31794 208.12 3.15046 206.817 3.49769C205.817 3.58304 205.266 3.77798 205.008 3.83586C204.563 3.93596 204.505 3.89675 204.056 3.9748C203.567 4.05973 203.237 4.15459 203.17 4.16726C202.816 4.23376 201.675 4.44846 200.653 4.6375C199.753 4.80532 198.941 4.91582 198.865 4.91736C199.003 4.88873 199.141 4.85942 199.279 4.82944C198.377 4.94938 198.571 4.96728 198.334 5.00606C198.157 5.02892 197.98 5.05068 197.803 5.07132C197.872 5.0527 197.941 5.03392 198.01 5.01496C196.941 5.13789 197.765 5.09615 196.242 5.23178C195.274 5.31123 194.271 5.30422 194.177 5.30948C194.149 5.31117 194.455 5.3285 194.06 5.34433C193.405 5.37352 192.272 5.36629 192.147 5.32495C191.826 5.32445 191.852 5.35991 191.81 5.35991C191.623 5.38765 188.422 5.19611 187.854 5.09751C186.948 4.99431 185.987 4.84965 185.016 4.6678C184.286 4.53108 183.547 4.39306 182.815 4.25909C182.639 4.22682 182.756 4.22523 182.579 4.19303C182.296 4.14132 180.836 3.90534 180.619 3.8673C180.076 3.77225 178.653 3.49203 178.427 3.4604C178.395 3.4559 178.858 3.574 178.308 3.48103C177.698 3.37778 178.033 3.39799 178 3.3914C176.764 3.14596 175.976 3.02834 175.129 2.87587C174.855 2.82644 174.354 2.7011 173.966 2.63797C173.921 2.63069 174.004 2.67569 173.96 2.66893C173.373 2.57472 172.836 2.41965 172.584 2.36898C171.966 2.24501 172.296 2.34701 172.264 2.34126C171.851 2.26551 171.299 2.14778 170.672 2.03256C169.98 1.90542 169.319 1.78381 168.672 1.66431C166.687 1.30258 164.804 1.07007 162.513 0.967879C162.131 0.951086 161.677 0.91256 161.619 0.911558C161.438 0.908668 161.489 0.940315 160.966 0.935243C159.863 0.927806 158.84 0.961791 157.751 1.03508C157.532 1.05012 157.436 1.02688 157.268 1.03942C156.705 1.06971 154.811 1.37547 154.768 1.29015C153.971 1.46575 153.363 1.5459 152.75 1.64279C152.523 1.6788 152.295 1.7158 152.057 1.76048C149.983 2.14981 146.738 2.77412 144.667 3.14917C144.232 3.22808 144.023 3.24119 143.78 3.28508C143.345 3.36373 140.864 3.84155 140.734 3.86186C140.477 3.90192 140.61 3.76307 139.316 4.1041C138.549 4.25455 138.631 4.19232 138.472 4.21958C137.601 4.36892 136.759 4.57363 136.403 4.6367C136.252 4.66336 136.19 4.66377 136.252 4.62384C134.828 4.90852 133.896 5.06809 133.298 5.04796C133.311 5.08933 132.634 5.19433 131.811 5.23984C132.645 5.09278 132.54 5.08882 134.558 4.83514C134.59 4.83084 134.534 4.8702 134.566 4.86591C134.854 4.82777 135.451 4.72064 135.939 4.6357C136.427 4.55027 136.16 4.61946 136.355 4.58337C136.368 4.58089 136.38 4.57843 136.392 4.57598C136.535 4.54504 136.543 4.51757 136.785 4.47196C137.633 4.31243 138.382 4.16422 138.864 4.07359C139.168 4.01652 139.513 3.97867 139.749 3.93461C140.661 3.76408 142.589 3.38313 143.75 3.16919C143.992 3.12469 143.896 3.17246 144.426 3.07605C144.487 3.06479 144.707 2.99266 145.169 2.89994C145.631 2.80718 145.993 2.75502 146.29 2.69634C146.538 2.64731 146.429 2.64002 146.939 2.54312C147.364 2.46238 152.182 1.58236 152.444 1.53779C152.55 1.51977 152.641 1.50713 152.722 1.49723C152.932 1.47152 153.076 1.46487 153.242 1.43236C153.283 1.42426 153.346 1.3758 153.488 1.34923C155.818 0.834467 161.1 0.587751 163.807 0.862101C165.48 0.98133 167.108 1.19163 168.705 1.4868C172.469 2.18262 176.154 2.85821 180.075 3.58431C180.175 3.59654 180.276 3.60876 180.376 3.62099C179.814 3.51573 179.252 3.41048 178.689 3.30523C178.689 3.28752 178.689 3.26981 178.688 3.25211C177.929 3.10744 178.022 3.16654 178.039 3.19486C177.759 3.132 177.48 3.06915 177.201 3.00629C176.947 3.02035 175.078 2.63048 174.111 2.44995C173.482 2.33246 172.729 2.2153 172.398 2.1516C171.698 2.01708 171.723 1.98386 171.668 1.97299C171.575 1.95469 170.59 1.80429 169.885 1.67124C169.35 1.57043 169.063 1.50098 168.716 1.42771C168.382 1.3579 167.992 1.28429 167.279 1.19868C165.419 0.882754 163.328 0.714981 161.294 0.695043C161.682 0.643912 159.858 0.677205 159.037 0.71972C157.049 0.792935 154.884 1.01417 152.707 1.4155C149.444 2.01514 146.087 2.62862 143.113 3.17131C142.479 3.28697 141.995 3.34568 141.642 3.41259C141.451 3.44884 141.374 3.50055 141.108 3.54539C141.061 3.55319 141.022 3.52548 140.527 3.61275C139.591 3.7775 137.606 4.17945 136.359 4.39868C135.969 4.46719 135.651 4.51183 135.464 4.52658C131.311 5.222 127.053 5.29204 122.876 4.73274C122.773 4.70455 122.671 4.67598 122.568 4.64704C122.256 4.6305 121.594 4.54235 120.816 4.3996C119.573 4.17181 118.027 3.86801 117.085 3.69402C114.371 3.1934 110.907 2.569 108.53 2.12757C108.014 2.03164 107.594 1.93261 107.105 1.84174C106.895 1.80267 106.629 1.77975 106.41 1.73901C105.808 1.62722 105.156 1.50398 104.476 1.37483C102.347 0.962983 99.9218 0.698272 97.9902 0.638057C94.733 0.52642 91.5707 0.771315 88.4453 1.35271C86.0384 1.80166 83.6157 2.25366 81.1158 2.72108C78.1112 3.28291 75.1094 3.84508 72.1102 4.40727C66.9812 5.37079 61.6811 5.37346 56.5626 4.42029C51.1099 3.40696 45.6642 2.39465 40.2247 1.38108C34.9388 0.394085 29.4771 0.395893 24.2003 1.37954C23.9561 1.42498 23.7118 1.47041 23.4675 1.51583C23.2124 1.56326 23.2196 1.53106 23.0219 1.56777C21.8547 1.78425 19.2535 2.29552 17.9354 2.54031C16.8852 2.73538 15.2101 3.00105 14.8573 3.11446C17.8908 2.60618 21.0535 2.02297 24.2125 1.44442C24.9615 1.30719 25.7139 1.18991 26.4667 1.09353C26.749 1.05767 26.7878 1.08265 26.8226 1.07867C27.4667 1.01214 27.0553 1.01541 27.9899 0.917348C28.3021 0.860361 31.2004 0.796464 30.8532 0.733251C31.5501 0.677085 36.4397 0.886711 37.3727 1.06184C37.6577 1.0926 37.4595 1.04126 37.5162 1.04675C37.7625 1.07114 37.8683 1.12276 38.0871 1.15332C38.5754 1.21805 39.6939 1.37654 40.2081 1.46956C40.3072 1.48671 40.3837 1.50021 40.4288 1.50867C41.0645 1.62773 42.9649 2.01368 43.8058 2.16342C44.5764 2.30068 44.4395 2.23534 45.1055 2.35606C45.6303 2.45131 45.0531 2.37697 46.222 2.60538C46.8013 2.71853 48.8354 3.07449 49.3287 3.16663C49.8218 3.25873 50.3661 3.3842 51.0466 3.50946C52.0269 3.68996 54.1606 4.07523 55.159 4.25406C55.2186 4.26476 55.3692 4.26195 55.5158 4.28996C55.8193 4.34795 55.7212 4.36785 55.9499 4.41444C55.9988 4.42441 56.2195 4.46607 56.5428 4.52662C57.7115 4.76895 60.2755 5.07288 60.8082 5.09956C61.2741 5.13842 61.5977 5.13641 61.8553 5.15188C62.0575 5.16371 62.0775 5.19613 62.2841 5.20673C62.3481 5.21 62.8935 5.20882 63.4375 5.22031C63.9512 5.24481 65.9045 5.23899 66.1306 5.21873C66.2778 5.21216 66.1156 5.19841 66.5504 5.17727C66.9466 5.15693 67.2086 5.16771 67.4345 5.15179C67.9585 5.11464 68.5407 5.03645 69.094 4.97373C70.6833 4.7827 70.6042 4.8066 70.7001 4.79855C70.9641 4.76166 71.0643 4.71182 71.1505 4.69725C71.3677 4.66056 71.7723 4.58884 72.1311 4.51915C72.3769 4.47168 72.6021 4.4283 72.7342 4.40311C73.142 4.32534 73.3206 4.32366 73.7542 4.24278C74.0774 4.18239 74.7245 4.03066 75.4615 3.8915C77.123 3.57764 79.0985 3.20284 80.731 2.89911C81.2178 2.80851 81.2978 2.8225 81.4467 2.79544C82.2293 2.65323 82.6613 2.54023 82.8845 2.49896C84.3657 2.225 86.9339 1.78942 88.4749 1.51121C88.5921 1.49004 88.7035 1.47027 88.8081 1.45187C89.4144 1.32709 92.0977 0.919889 93.6279 0.848397C93.8025 0.837639 93.6405 0.870145 93.8345 0.854662C94.2989 0.819238 94.2536 0.777539 94.4899 0.767537C94.604 0.763188 94.8649 0.777272 95.197 0.770175C96.9192 0.735588 98.1041 0.770958 98.8888 0.814117C100.751 0.921191 102.615 1.14915 104.453 1.49572C109.987 2.53866 115.496 3.57503 120.648 4.54041C120.693 4.54887 120.739 4.55736 120.785 4.56589C121.516 4.69961 122.413 4.82606 123.492 4.98146C123.525 4.99973 123.559 5.01796 123.593 5.03615C123.635 5.02715 123.677 5.01809 123.719 5.00898C125.024 5.14412 125.519 5.16579 126.856 5.24584C126.971 5.25232 127.322 5.32909 127.542 5.25415C128.867 5.33368 128.141 5.26742 129.125 5.25777C130.109 5.23983 131.066 5.21194 132.018 5.13895C132.544 5.1326 130.354 5.35044 130.209 5.34126C129.978 5.34983 129.737 5.31722 129.514 5.31992C128.856 5.32876 128.219 5.35418 128.071 5.31663C127.22 5.34038 128.28 5.33918 128.173 5.37029C127.604 5.35078 127.037 5.31988 126.47 5.27763C126.171 5.40835 123.056 4.95838 123.266 5.04914C123.02 5.00052 122.775 4.94975 122.53 4.89686C121.864 4.86743 121.371 4.78276 120.769 4.65156C120.375 4.56509 119.933 4.46237 119.363 4.34293C119.465 4.37629 119.567 4.40964 119.67 4.443C119.639 4.44321 118.354 4.22604 118.823 4.25279C117.495 4.08499 117.575 3.96649 116.38 3.83976C115.678 3.7211 116.109 3.74554 114.857 3.51266C114.115 3.37463 113.189 3.23093 112.36 3.07808C112.169 3.04277 112.091 2.99595 111.921 2.96421C111.752 2.9325 111.663 2.94773 111.457 2.91007C111.032 2.83234 110.485 2.70785 110.219 2.6603C109.98 2.61761 109.635 2.58115 109.06 2.47823C107.053 2.11902 107.666 2.1934 107.352 2.12119C107.015 2.04376 106.761 2.04908 106.084 1.91655C106.016 1.90323 106.198 1.90432 105.976 1.86428C105.798 1.83195 105.702 1.84973 105.11 1.74587C105.053 1.73586 104.795 1.68868 104.43 1.62147C103.278 1.39224 101.038 1.1186 100.606 1.09031C99.7362 0.996664 97.7902 0.862839 96.8834 0.8655C96.5342 0.862081 96.1613 0.891086 95.7907 0.896679C94.5624 0.907843 92.5971 1.02484 91.0517 1.22578C90.3471 1.31247 89.374 1.44214 88.4914 1.59957C87.638 1.7504 86.8653 1.89356 86.5007 1.98989C84.5831 2.35546 84.1082 2.39531 83.9635 2.42168C83.572 2.49296 83.3968 2.55805 82.9039 2.65161C79.6549 3.26801 75.8798 3.97225 72.1583 4.66452C68.6004 5.33415 65.0127 5.48835 62.0257 5.31995C60.1792 5.22041 58.3379 5.00054 56.5176 4.66162C51.0791 3.64917 45.6311 2.63582 40.18 1.62033C34.9299 0.640057 29.4963 0.640957 24.2455 1.62139C22.6556 1.91759 21.0658 2.21343 19.4762 2.50883C19.4411 2.52973 19.406 2.55064 19.3708 2.57154C20.9096 2.29268 22.6997 1.98026 24.2596 1.6967C24.3895 1.67309 24.5178 1.65028 24.6444 1.62825C26.8536 1.21327 30.187 0.900286 31.837 1.00864C31.1693 1.01879 30.0801 1.02923 30.1021 1.07959C31.2944 1.02488 32.4888 1.01956 33.6812 1.06363C33.6464 1.03955 33.6116 1.01551 33.5767 0.99151C34.8242 1.02387 36.098 1.12451 37.3418 1.26984C37.5578 1.29537 37.4074 1.25609 37.5955 1.27927C37.8059 1.30578 37.6606 1.30874 37.7 1.31389C38.2311 1.38276 38.394 1.38731 38.4587 1.39652C38.6245 1.42211 38.4929 1.42144 38.9697 1.50132C39.5014 1.59169 39.9444 1.65531 40.1648 1.70161C40.3097 1.73207 40.3577 1.75426 40.2691 1.77426C40.5517 1.82704 40.8343 1.87982 41.1169 1.9326C41.1946 1.92215 41.2722 1.9117 41.3499 1.90125C43.07 2.32327 43.9034 2.30216 44.8387 2.6171C45.1593 2.65556 45.4799 2.69402 45.8005 2.73248C45.9745 2.78994 46.1485 2.8474 46.3225 2.90487C46.3612 2.89067 46.3999 2.87647 46.4385 2.86227C48.1423 3.19627 49.964 3.5108 51.5958 3.81804C52.7324 4.03205 53.0033 4.0911 54.0107 4.27765C56.2516 4.69252 54.0192 4.31809 55.8724 4.71011C55.7803 4.66663 55.6881 4.62315 55.5959 4.57968C55.8994 4.62694 56.2029 4.6742 56.5064 4.72146C56.5129 4.72247 56.5193 4.72347 56.5258 4.72448C56.735 4.78486 56.9445 4.84364 57.1549 4.90088C58.1206 4.9542 58.7245 5.11675 58.855 5.13455C58.9605 5.1456 59.3264 5.13821 60.4533 5.30068C59.9918 5.16968 61.3175 5.37573 61.4256 5.37833C61.5272 5.38985 62.8306 5.44079 63.3597 5.44771C63.7758 5.45972 64.664 5.48433 65.2842 5.46746C65.8317 5.4531 65.775 5.42179 65.8149 5.4207C66.4878 5.39202 66.0671 5.43318 66.5537 5.41105C67.0404 5.38696 67.4154 5.33264 67.5203 5.3272C67.5732 5.32443 67.3989 5.36621 67.6406 5.35053C68.2903 5.31108 69.4577 5.16303 70.1945 5.05798C70.4558 5.02214 70.7885 4.99721 71.079 4.95136C71.5243 4.8807 71.7261 4.81175 71.9837 4.76619C72.0093 4.76163 72.0751 4.75386 72.1726 4.74142C72.4177 4.71003 72.8616 4.6512 73.3715 4.55044C73.5074 4.52352 73.888 4.34591 74.4465 4.3925C74.4837 4.36433 74.5208 4.33616 74.558 4.30799C76.9482 3.809 77.6471 3.85097 78.6865 3.50375C80.432 3.19484 79.2466 3.47588 79.4395 3.44898C79.5641 3.43148 80.1292 3.30954 80.1918 3.29877C80.3027 3.2799 80.2872 3.30194 80.4083 3.27921C82.6288 2.86094 81.6361 3.01021 82.3355 2.85669C83.9984 2.4916 85.3253 2.36478 82.4092 2.87309C82.4111 2.88341 82.413 2.89373 82.415 2.90405C83.1295 2.76038 84.949 2.4254 84.3515 2.59116C83.881 2.72172 79.5615 3.50062 82.0158 3.10209C82.573 3.01157 82.8531 2.91917 83.8274 2.81235C84.4635 2.69763 84.5375 2.58645 85.4049 2.46352C85.2573 2.45712 85.1097 2.45073 84.9622 2.44433C86.1274 2.18243 87.5856 1.96947 88.4833 1.78278C88.4956 1.78021 88.5092 1.77715 88.524 1.77366C88.8736 1.68702 89.8686 1.38305 89.6432 1.57481C90.1596 1.4626 92.627 1.20219 93.0869 1.17085C93.1972 1.16401 93.334 1.04383 94.9409 1.00703C95.0528 1.01372 95.1646 1.02084 95.2764 1.0284C93.811 1.10447 96.401 1.06153 95.6992 1.16153C95.4602 1.12532 94.2985 1.14636 94.1107 1.14249C93.7899 1.13005 94.7383 1.03221 93.5274 1.11751C92.7742 1.29901 94.95 1.10607 94.6225 1.25728C96.2064 1.13966 96.3674 1.21919 96.726 1.21838C98.2605 1.24355 99.2274 1.2841 100.668 1.43443C101.024 1.42899 98.4099 1.18553 98.0828 1.20629C99.2837 1.16518 97.2217 1.06332 96.3511 1.13404C96.278 1.10616 96.2047 1.07846 96.1313 1.05094C97.2662 1.05769 98.3716 1.1005 99.4942 1.1561C99.5665 1.1717 99.6386 1.18749 99.7107 1.20345C99.4584 1.20028 99.2061 1.19931 98.954 1.20057C99.8828 1.28747 99.3321 1.15956 100.564 1.33976C100.605 1.31195 100.647 1.2842 100.688 1.2565C101.875 1.38365 103.057 1.55999 104.229 1.7848C104.276 1.78853 104.332 1.79455 104.396 1.80259C105.173 1.90025 107.059 2.2789 106.665 2.28246C107.57 2.45751 106.459 2.2055 107.312 2.34456C107.684 2.40512 108.407 2.53772 108.581 2.59278C108.49 2.65525 107.407 2.46277 107.07 2.45441C107.265 2.50852 112.305 3.39315 111.84 3.39924C112.24 3.48506 112.064 3.40428 112.791 3.52774C114.827 3.87382 117.954 4.55254 119.61 4.74303C117.702 4.32067 117.122 4.2823 115.65 4.01029C114.711 3.83659 108.98 2.77764 110.275 2.93538C110.063 2.90641 109.851 2.87743 109.638 2.84845C109.43 2.78455 109.222 2.72065 109.014 2.65675C109.614 2.76521 110.214 2.87367 110.814 2.98212C110.952 3.03296 111.091 3.08381 111.229 3.13465C111.299 3.12976 111.368 3.12487 111.437 3.11998C111.69 3.16369 111.943 3.2074 112.196 3.25112C112.121 3.25857 112.047 3.26603 111.972 3.27349C112.36 3.34967 112.748 3.42585 113.137 3.50203C113.037 3.45481 112.937 3.4076 112.838 3.36038C114.671 3.69553 114.047 3.59699 115.054 3.83846C115.811 3.98541 114.54 3.69296 116.147 3.97915C118.016 4.31199 116.776 4.16786 119.196 4.60113C119.233 4.59383 119.271 4.58653 119.308 4.57923C119.781 4.6803 120.254 4.78137 120.726 4.88244C120.782 4.89437 120.838 4.90619 120.894 4.9179C120.84 4.89389 120.787 4.86979 120.733 4.84558C120.72 4.83956 120.707 4.83354 120.693 4.82752C120.707 4.8302 120.721 4.83289 120.735 4.83558C121.821 5.05108 123.307 5.21523 123.661 5.31988C122.548 5.15203 122.543 5.26087 122.831 5.32504C123.407 5.67428 132.384 5.84605 134.09 5.35888C134.95 5.24598 135.726 5.12535 136.469 4.98989C137.628 4.77826 138.716 4.5753 139.925 4.31308C139.277 4.41071 137.862 4.67188 136.458 4.93341C134.918 5.22537 133.374 5.40111 132.896 5.4295C132.805 5.43466 132.821 5.32603 132.253 5.50007C130.384 5.64153 128.139 5.73501 125.799 5.57669C125.872 5.54986 125.946 5.52284 126.019 5.49563C127.452 5.65239 128.786 5.49087 128.598 5.6151C128.884 5.61504 129.17 5.6121 129.456 5.60629C129.456 5.58518 129.456 5.56406 129.455 5.54295C129.886 5.53421 130.317 5.51895 130.747 5.49719C130.748 5.51828 130.749 5.53937 130.75 5.56046C131.107 5.54241 131.464 5.51989 131.82 5.4929C131.856 5.4691 131.891 5.44524 131.927 5.42135C133.003 5.42485 136.59 4.75076 135.025 5.11783C135.5 5.04548 135.975 4.96511 136.448 4.87674C136.469 4.8728 136.49 4.86886 136.511 4.86491C136.507 4.85004 136.502 4.83516 136.498 4.82029C136.711 4.7784 136.924 4.73652 137.137 4.69464C137.069 4.7215 137.001 4.74835 136.934 4.77521C137.907 4.56801 138.847 4.46725 139.48 4.29983C139.055 4.36853 138.629 4.43723 138.204 4.50593C139.02 4.37398 140.508 4.05373 140.642 4.02862C141.05 3.9522 141.271 3.9427 141.713 3.86169C142.112 3.78848 142.053 3.77516 142.128 3.7621C144.285 3.38403 143.488 3.66492 144.465 3.32607C144.576 3.32673 144.687 3.32738 144.798 3.32804C144.937 3.28422 145.076 3.2404 145.215 3.19658C145.851 3.07946 146.488 2.96234 147.124 2.84522C146.907 2.85902 146.69 2.87282 146.473 2.88663C147.424 2.69713 147.878 2.66584 147.97 2.64979C148.232 2.60402 148.346 2.54923 148.426 2.53409C152.31 1.8116 149.957 2.28072 151.92 2.04023C152.603 1.86314 151.894 1.94591 151.787 1.91556C152.204 1.84838 152.491 1.79784 152.769 1.74621C153.11 1.68335 153.439 1.62047 153.978 1.53649C154.234 1.49683 154.513 1.48299 154.674 1.46069C154.814 1.44091 155.248 1.35346 155.586 1.31367C156.147 1.24603 156.898 1.18666 157.67 1.13226C158.312 1.07805 160.282 0.973373 161.657 1.01476C162.244 1.02929 162.107 1.05118 162.259 1.05589C162.322 1.05786 162.78 1.04694 163.156 1.06869C164.984 1.17144 166.833 1.40007 168.656 1.74604C169.883 1.9785 171.108 2.21024 172.325 2.43719C174.448 2.83346 176.61 3.21394 178.737 3.6136C179.19 3.69867 178.946 3.67444 179.144 3.71209C179.211 3.72496 179.3 3.7044 179.997 3.84955C180.249 3.90199 179.954 3.87271 180.202 3.9204C180.323 3.94361 180.38 3.92181 181.089 4.04678C182.377 4.27385 183.061 4.44478 183.176 4.46497C183.392 4.50299 183.334 4.46518 183.621 4.51781C184.103 4.60618 184.557 4.68947 184.997 4.77012C185.833 4.923 186.619 5.04337 187.443 5.14715C188.024 5.27316 192.088 5.52369 192.314 5.48445C192.814 5.49919 192.347 5.55286 192.99 5.5513C193.17 5.53668 193.349 5.52093 193.529 5.50405C193.243 5.49805 192.958 5.48918 192.672 5.47746C193.458 5.49964 194.349 5.44884 194.929 5.42009C195.036 5.41731 196.026 5.38393 196.528 5.33413C196.315 5.363 196.102 5.39028 195.889 5.41596C195.965 5.41937 196.042 5.42257 196.118 5.42556C197.124 5.33507 198.187 5.21559 199.211 5.06258C199.581 5.00658 199.459 5.04758 199.833 4.98738C200.182 4.93016 200.46 4.87823 200.69 4.83268C201.896 4.59313 201.784 4.57309 203.569 4.38299C203.068 4.46569 201.637 4.74053 200.706 4.91788C200.318 4.99166 200.017 5.04295 199.906 5.05984C199.644 5.10331 198.608 5.1117 199.001 5.20106C196.899 5.47602 198.717 5.17839 196.752 5.40382C196.793 5.41789 196.834 5.4319 196.875 5.44586C196.188 5.52178 195.679 5.56421 195.258 5.55695C195.123 5.66219 192.769 5.69993 191.481 5.64546C189.619 5.59907 187.518 5.40942 185.696 5.10142C185.382 5.04894 185.138 4.99607 184.963 4.95497C184.788 4.91391 184.681 4.88548 184.642 4.8782C184.527 4.85697 184.199 4.82573 183.969 4.78309C183.112 4.62392 180.516 4.08802 179.852 4.04766C181.553 4.3653 183.254 4.68294 184.954 5.00057C188.346 5.6344 191.814 5.85705 195.259 5.66216C194.612 5.71736 199.819 5.19686 200.07 5.07407C200.312 5.03411 200.114 5.0972 200.186 5.08645C200.378 5.05752 200.558 5.02232 200.719 4.98734C201.008 4.92414 201.234 4.86478 201.343 4.84435C201.473 4.82013 201.738 4.79018 202.199 4.70364C202.284 4.68778 202.304 4.66335 202.394 4.64631C202.996 4.53396 203.59 4.42334 204.193 4.31049C204.23 4.30382 204.388 4.30465 204.54 4.27624C204.693 4.2477 204.839 4.19024 204.877 4.18295C205.36 4.09304 206.191 3.95758 206.65 3.87204C206.809 3.84229 206.695 3.84148 206.873 3.80835C207.422 3.70645 207.249 3.78214 207.925 3.6447C208.151 3.59861 208.131 3.56927 208.567 3.49222C208.875 3.43767 208.853 3.50105 208.902 3.494C208.97 3.4839 210.025 3.2401 210.38 3.21255C209.638 3.45335 211.213 3.06238 211.128 3.03498C211.552 2.96677 211.975 2.89856 212.399 2.83034C212.54 2.79294 212.682 2.75553 212.824 2.71813C214.471 2.45803 215.489 2.24218 217.059 1.96051C217.119 1.94976 217.179 1.93905 217.241 1.92837C217.321 1.90833 218.742 1.70171 218.678 1.73157C218.11 1.83285 217.545 1.93562 217.069 2.01223C216.835 2.04962 216.624 2.07854 216.443 2.09615C215.572 2.35216 215.543 2.28323 214.111 2.56314C213.631 2.65691 213.601 2.68772 213.546 2.69835C211.68 3.05942 208.69 3.62877 207.418 3.79238C207.069 3.87761 208.339 3.64837 207.848 3.7547C207.581 3.81274 201.112 5.0445 203.165 4.57601C202.951 4.61837 202.736 4.66074 202.522 4.7031C202.322 4.8209 201.251 5.00249 201.358 4.90247C201.26 4.9372 201.162 4.97193 201.063 5.00666C200.966 5.0317 200.859 5.05689 200.737 5.08395C200.611 5.1117 200.467 5.14089 200.3 5.17269C199.048 5.60214 191.354 5.95381 190.946 5.78335C190.936 5.8016 190.926 5.81985 190.916 5.83809C194.151 5.99654 197.309 5.76337 200.753 5.16931C200.926 5.13902 201.101 5.10877 201.277 5.07857C201.168 5.08109 201.059 5.08361 200.95 5.08613C202.407 4.83907 203.863 4.592 205.32 4.34493C204.089 4.60065 202.272 4.9627 200.765 5.23809C200.396 5.30568 200.044 5.36313 199.724 5.40965C199.434 5.45131 199.642 5.39329 199.575 5.40096C199.401 5.42005 199.221 5.49408 198.596 5.58358C197.97 5.68074 196.387 5.80359 196.242 5.80961C195.963 5.83484 195.211 5.93349 194.734 5.95213C194.106 5.97668 194.526 5.92964 194.4 5.93399C193.879 5.94988 193.412 5.97228 193.004 5.97164C192.398 5.97573 191.142 5.88911 190.716 5.94125C191.148 5.96605 191.581 5.98436 192.014 5.99616C189.663 5.96965 187.841 5.69543 185.548 5.38998C185.013 5.39509 186.905 5.69984 185.3 5.46987C185.59 5.51976 185.881 5.56667 186.172 5.61063C186.243 5.60183 186.315 5.59284 186.386 5.58369C186.884 5.67307 187.385 5.75373 187.887 5.82561C187.745 5.79168 187.604 5.75705 187.462 5.72172C189.245 5.93824 191.056 5.99715 191.681 6.10447C191.718 6.0827 191.756 6.06088 191.793 6.03901C193.461 6.12794 195.955 5.87622 195.495 6.02786C195.574 6.01631 195.652 6.00455 195.731 5.99258C196.738 5.94554 196.304 5.92296 196.681 5.88587C196.789 5.88509 198.738 5.68767 197.88 5.82546C199.782 5.6126 199.178 5.55807 199.698 5.47734C200.018 5.44164 200.403 5.3809 200.779 5.31161C201.825 5.11933 202.81 4.90505 202.157 5.09644C202.336 5.06664 202.514 5.03684 202.693 5.00703C203.264 4.82619 203.855 4.79967 204.494 4.70849C204.709 4.67002 204.924 4.63156 205.139 4.59309C205.278 4.54213 205.417 4.49116 205.556 4.4402C207.597 4.17786 206.899 3.98334 207.871 4.0748C207.73 4.11743 207.589 4.16005 207.448 4.20268C207.109 4.27383 206.77 4.34498 206.43 4.41613C207.806 4.16636 209.182 3.91659 210.558 3.66682C212.316 3.41487 213.294 3.14922 215.244 2.84569C215.424 2.80478 215.604 2.76387 215.784 2.72296C215.61 2.81723 214.905 2.93994 216.221 2.72182C216.341 2.74317 215.456 2.91404 215.046 2.95704C214.948 2.96731 215.77 2.7803 214.839 2.953C214.206 3.07036 215.364 2.90652 213.465 3.24178C213.537 3.23898 213.609 3.23618 213.681 3.23338C213.476 3.27146 213.27 3.30955 213.065 3.34763C212.877 3.35789 212.69 3.36814 212.503 3.3784C212.04 3.50062 211.785 3.59819 210.71 3.78838C210.998 3.71905 210.594 3.74488 210.063 3.8449C210.066 3.86218 210.07 3.87946 210.073 3.89674C208.789 4.14803 209.223 4.01442 208.162 4.25369C208.052 4.25993 207.943 4.26617 207.833 4.27242C207.261 4.43781 205.124 4.8768 205.499 4.71888C204.913 4.91371 203.643 5.11244 203.161 5.13421C203.128 5.15811 203.095 5.18201 203.062 5.20591C202.813 5.25609 202.563 5.30628 202.314 5.35647C202.173 5.37214 202.031 5.38782 201.89 5.40349C201.714 5.44698 201.539 5.49046 201.364 5.53394C201.254 5.5367 201.143 5.53946 201.033 5.54223C200.966 5.55985 200.899 5.57747 200.832 5.59509C200.615 5.65184 200.398 5.7069 200.18 5.76035C200.001 5.77686 199.821 5.79222 199.642 5.80648C199.631 5.853 197.867 6.10859 197.369 6.12571C197.223 6.15168 197.076 6.17691 196.93 6.2014C196.856 6.19088 196.782 6.18017 196.708 6.16928C196.6 6.19294 196.491 6.21619 196.382 6.23903C196.128 6.24583 195.873 6.2504 195.619 6.25273C194.59 6.39966 194.551 6.31671 194.315 6.32756C193.878 6.35077 192.383 6.4118 192.133 6.39857C191.884 6.39158 191.764 6.35795 191.563 6.34935C188.25 6.14651 189.609 6.26797 188.942 6.24082C188.583 6.21551 188.333 6.16123 188.017 6.12946C187.555 6.09509 185.51 5.82951 184.825 5.69342C184.707 5.67252 184.63 5.65841 184.607 5.65365C184.386 5.60679 184.935 5.57239 184.204 5.47126C184.167 5.53784 182.632 5.17689 183.337 5.41119C182.701 5.28339 182.065 5.15558 181.429 5.02778C181.485 5.12553 180.709 4.92447 179.852 4.76916C178.637 4.54901 175.894 4.09401 176.01 4.02624C175.715 3.9918 175.421 3.95736 175.126 3.92292C173.142 3.52417 171.186 3.18826 169.211 2.82053C168.969 2.77539 168.725 2.73005 168.481 2.68453C163.481 1.73466 157.968 1.71557 152.939 2.65665C152.364 2.76232 151.793 2.86723 151.227 2.97124C150.946 3.02276 150.981 2.987 150.779 3.02408C149.718 3.21906 146.965 3.75392 145.478 4.02518C145.002 4.1121 144.765 4.12783 144.614 4.15475C144.101 4.24595 144.229 4.25966 143.992 4.30268C143.62 4.37053 141.645 4.70446 140.967 4.82756C140.631 4.8885 140.239 4.99151 139.844 5.05601C139.81 5.0616 139.867 5.02022 139.839 5.02505C139.122 5.1552 139.557 5.10042 139.315 5.14432C138.433 5.30383 137.522 5.47147 136.591 5.64303C135.683 5.81057 134.752 5.95263 133.81 6.06316C133.333 6.12047 132.6 6.1723 132.19 6.20307C132.033 6.21481 132.316 6.21651 131.774 6.25592C131.589 6.26871 131.523 6.24338 131.314 6.25477C130.411 6.29994 130.111 6.40523 129.332 6.34445C127.832 6.39374 125.217 6.28957 123.856 6.12349C123.534 6.08803 123.38 6.05187 123.073 6.01346C122.856 5.9862 122.47 5.96165 122.132 5.91104C121.794 5.8607 121.264 5.75125 120.618 5.63194C120.608 5.63005 120.598 5.62816 120.587 5.62626C119.921 5.50322 119.106 5.36625 118.957 5.33832C118.774 5.30418 118.695 5.25601 118.512 5.22228C117.96 5.1201 116.474 4.87547 115.761 4.74591C114.996 4.60665 114.539 4.50522 114.278 4.45671C114.036 4.41192 113.748 4.38641 113.637 4.36599C113.465 4.33427 113.431 4.29486 113.212 4.25431C112.855 4.18816 112.483 4.13942 111.948 4.03996C109.367 3.56077 106.801 3.08215 104.246 2.60409C99.0757 1.63506 93.775 1.64033 88.6751 2.58288C86.9502 2.90117 85.2285 3.21855 83.5092 3.53528C82.463 3.72798 81.8763 3.86066 80.3335 4.13827C79.708 4.2508 79.965 4.16881 79.48 4.26583C79.2637 4.30912 79.3234 4.32471 79.0495 4.37715C77.8389 4.60884 76.4228 4.84849 75.8979 4.94696C75.6897 4.98597 75.4572 5.05975 75.0303 5.13991C74.1705 5.30144 73.268 5.47006 72.341 5.64288C69.8044 6.12018 67.0422 6.37619 64.4653 6.3832C62.5956 6.40693 59.7628 6.23039 57.6423 5.88634C57.2061 5.819 56.7687 5.74462 56.3305 5.66306C50.9552 4.66275 45.2962 3.59999 40.4422 2.6962C40.293 2.66841 40.1438 2.64064 39.9946 2.61287C34.8542 1.65471 29.5554 1.67054 24.4334 2.62722C21.8872 3.10196 19.3401 3.57334 16.7897 4.03896C19.0239 3.66591 21.7378 3.17439 24.4425 2.6762C26.2004 2.35137 27.9751 2.14203 29.6105 2.04544C33.0226 1.84083 36.5237 2.04572 39.9801 2.69044C45.3811 3.69664 50.8638 4.71148 56.3191 5.72405C59.7178 6.35566 63.18 6.57819 66.5851 6.40242C68.3726 6.31149 70.3457 6.09438 72.3552 5.71894C75.2167 5.1858 78.2065 4.63091 80.9515 4.12827C81.1621 4.08969 81.594 3.98568 82.0493 3.90311C82.146 3.88562 83.3519 3.70298 83.7557 3.62801C83.3594 3.62633 84.953 3.39614 85.4416 3.30307C86.0448 3.18808 87.2832 2.92048 88.6925 2.67582C88.7222 2.67065 88.7521 2.66553 88.782 2.66046C90.0761 2.44996 89.7254 2.54865 89.7967 2.536C90.2558 2.47524 90.4091 2.4071 90.7604 2.35392C92.1829 1.96963 99.6696 1.85937 101.726 2.30652C102.26 2.37511 102.27 2.40889 102.39 2.42534C102.708 2.47044 103.164 2.50986 103.671 2.59785C103.854 2.62946 104.041 2.66431 104.228 2.70112C104.991 2.85109 105.754 3.0115 106.162 3.08785C107.382 3.31603 109.703 3.71634 111.289 4.01186C111.735 4.09495 111.702 4.11984 111.904 4.15744C112.792 4.32289 115.113 4.71983 116.217 4.92553C117.646 5.19214 119.106 5.47752 120.564 5.74979C120.94 5.81988 121.316 5.88419 121.692 5.94224C121.808 5.97452 121.923 6.00632 122.039 6.03766C122.228 6.05176 122.416 6.06461 122.605 6.07624C125.758 6.52512 129.018 6.58246 132.171 6.32272C132.536 6.30322 134.333 6.1279 134.631 6.07658C134.879 6.04177 135.118 5.97307 135.485 5.91957C135.999 5.84174 135.527 5.98888 136.362 5.82374C136.539 5.78742 136.436 5.78801 136.61 5.74399C136.655 5.73257 136.718 5.71812 136.809 5.6992C136.956 5.669 139.8 5.12641 139.953 5.0997C140.209 5.05523 140.447 5.07063 140.513 5.05958C140.857 5.00222 140.834 4.96052 141.063 4.9136C141.737 4.77499 142.628 4.63961 142.738 4.61839C144.067 4.36167 146.548 3.86165 147.948 3.62181C148.142 3.58867 148.125 3.62607 148.159 3.62081C148.379 3.58679 148.508 3.52373 148.716 3.484C149.835 3.27053 151.594 2.96826 152.722 2.7643C152.777 2.7543 152.858 2.73605 152.95 2.71517C153.073 2.68729 153.216 2.65535 153.348 2.63319C154.641 2.42412 154.227 2.53044 154.301 2.51754C154.475 2.49406 154.777 2.41493 155.243 2.35198C156.44 2.17539 158.757 2.00608 160.054 2.00363C161.026 1.9946 161.011 2.04082 161.074 2.04014C161.21 2.04309 161.589 2.01483 162.229 2.03392C163.458 2.07885 163.316 2.11089 163.821 2.14262C163.863 2.14638 163.792 2.10946 164.351 2.15332C165.291 2.21984 167.237 2.48868 168.472 2.7351C168.662 2.77133 168.836 2.8042 168.989 2.83247C169.435 2.91532 169.545 2.9076 170.002 2.99243C170.726 3.12682 172.356 3.46168 172.485 3.48568C172.521 3.49243 172.608 3.47625 172.821 3.51595C173.054 3.55962 173.281 3.61869 173.456 3.65113C174.448 3.83607 176.168 4.10077 175.672 4.12381C175.996 4.15561 176.319 4.18741 176.642 4.21922C178.72 4.61297 180.741 4.97909 182.802 5.35815C183.265 5.44342 183.648 5.53683 184.039 5.60882C184.175 5.63383 184.473 5.68482 184.816 5.74294C185.469 5.85593 186.288 5.9671 186.481 5.99383C187.003 6.09832 190.009 6.39083 190.386 6.38775C191.118 6.43462 191.828 6.49834 192.128 6.49352C192.367 6.48938 192.146 6.46115 192.603 6.45728C193.393 6.45455 194.737 6.44235 194.979 6.42593C195.081 6.4189 194.888 6.41562 195.852 6.35193C196.371 6.31474 196.651 6.31131 196.839 6.29423C196.897 6.28666 196.807 6.26745 197.831 6.15928C198.538 6.08035 198.842 6.06242 198.916 6.05293C199.027 6.03732 199.291 5.97025 199.735 5.90045C200.047 5.85139 200.436 5.78908 200.855 5.71585C201.814 5.5482 202.932 5.35735 203.608 5.2328C203.796 5.19838 203.725 5.17421 204.472 5.03823C205.006 4.94099 204.918 4.98707 205.118 4.95092C205.435 4.89354 205.9 4.77029 206.599 4.64083C207.48 4.47794 214.02 3.29404 214.36 3.24035C214.589 3.20421 214.853 3.15533 214.968 3.14988C214.874 3.18285 214.781 3.21583 214.687 3.24881C213.676 3.38327 214.091 3.36777 213.827 3.42122C213.443 3.49858 211.992 3.76173 211.643 3.84053C211.519 3.86867 211.811 3.84712 211.143 3.98892C210.426 4.141 210.095 4.14409 209.822 4.27524C208.784 4.38007 207.819 4.65488 209.008 4.45818C209.638 4.35387 215.522 3.28415 217.247 2.96915C217.336 2.95287 217.414 2.93894 217.479 2.9274C218.528 2.73151 220.508 2.44137 221.819 2.35989C222.588 2.29252 224.488 2.2451 224.409 2.29548C225.093 2.29419 224.368 2.25901 224.512 2.25195C224.812 2.22252 226.949 2.29636 227.352 2.33307C228.989 2.41694 230.978 2.61934 232.68 2.96056C233.056 3.03478 233.419 3.10904 233.764 3.18296C233.671 3.17706 233.578 3.17115 233.486 3.16524C233.342 3.14525 233.031 3.08859 232.668 3.02156C231.934 2.88285 230.975 2.73898 230.817 2.75511C231.434 2.84208 232.049 2.94281 232.662 3.05718C235.005 3.49491 237.349 3.93264 239.693 4.37037C239.646 4.31496 243.331 5.00395 243.502 5.05686C243.433 5.06661 243.364 5.07637 243.296 5.08612C241.228 4.61424 241.395 4.75868 240.007 4.4393C239.438 4.33215 239.603 4.40033 239.321 4.35479C236.516 3.90139 239.29 4.27238 237.146 3.90543C237.78 4.07795 236.026 3.7701 235.24 3.63024C235.085 3.60253 233.296 3.25831 232.647 3.13491C232.552 3.11676 232.481 3.10384 232.446 3.09748C230.923 2.80634 228.274 2.54101 226.738 2.46552C225.526 2.41516 224.858 2.45227 223.76 2.48839C222.926 2.52287 223.164 2.49006 222.771 2.50819C221.947 2.5531 221.685 2.65857 221.149 2.59207C220.593 2.65707 220.039 2.73319 219.487 2.82034C219.484 2.80292 219.482 2.78549 219.48 2.76806C219.131 2.81409 218.784 2.8645 218.436 2.91927C218.337 2.95269 218.238 2.98647 218.139 3.0206C217.037 3.18544 217.488 3.0679 217.273 3.055C217.27 3.05556 217.267 3.05612 217.264 3.05668C217.023 3.09818 216.783 3.13967 216.542 3.18117C216.361 3.25389 216.179 3.32661 215.998 3.39934C214.911 3.59914 213.825 3.79893 212.738 3.99873C212.665 3.99463 212.591 3.99053 212.518 3.98643C212.519 4.00408 212.52 4.02172 212.52 4.03937C210.682 4.38643 208.843 4.73349 207.005 5.08055C206.521 5.19955 209.471 4.67007 209.695 4.63006C210.938 4.40734 214.229 3.76394 214.245 3.82454C214.823 3.68062 216.299 3.40316 217.298 3.24235C217.609 3.19264 217.872 3.15829 218.045 3.143C217.797 3.18382 217.551 3.22685 217.304 3.27213C216.461 3.42701 215.617 3.58189 214.774 3.73676C214.813 3.75072 214.853 3.76468 214.892 3.77864C213.51 3.95089 213.311 3.99281 211.92 4.33365C211.914 4.30629 211.907 4.27894 211.901 4.25158C210.939 4.53051 209.177 4.69114 209.15 4.81889C208.626 4.90671 208.103 4.99453 207.579 5.08235C206.456 5.30715 208.222 5.07161 203.805 5.85952C203.501 5.91379 203.559 5.87178 203.102 5.9592C202.977 5.98323 202.294 6.15201 200.982 6.39689C200.914 6.40955 200.844 6.42226 200.773 6.43497C200.541 6.47622 200.518 6.45312 200.276 6.49125C199.718 6.58236 198.608 6.78974 199.103 6.63321C196.879 6.89926 197.806 6.8396 197.118 6.94506C196.658 7.00706 196.746 6.94787 196.347 6.99224C195.853 7.03726 196.222 7.09373 194.232 7.15139C194.455 7.14089 194.678 7.12872 194.901 7.11487C194.788 7.10619 194.675 7.09708 194.562 7.08754C193.429 7.15899 193.536 7.09976 193.001 7.1836C192.175 7.14979 191.461 7.13695 190.334 7.08187C188.147 6.93571 189.253 7.13559 186.782 6.72038C186.379 6.68083 185.975 6.6357 185.573 6.58501C184.977 6.45241 185.375 6.4849 184.702 6.34936C184.641 6.33671 184.571 6.32256 184.489 6.30665C185.216 6.52654 183.222 6.12336 182.87 6.13275C182.838 6.10885 182.806 6.08495 182.773 6.06105C182.562 6.02151 182.35 5.98197 182.138 5.94243C182.135 5.95617 182.132 5.96991 182.129 5.98365C181.849 5.92061 181.569 5.85757 181.289 5.79454C181.074 5.76867 180.859 5.74281 180.645 5.71695C180.302 5.62287 179.959 5.52878 179.615 5.43469C179.397 5.39184 179.178 5.34898 178.96 5.30613C179.025 5.3397 179.091 5.37328 179.156 5.40685C178.876 5.34742 178.596 5.28798 178.316 5.22854C178.637 5.32354 178.424 5.32483 177.548 5.16023C176.826 5.02443 177.653 5.10578 176.094 4.84498C175.985 4.82683 175.784 4.84141 174.314 4.57494C172.551 4.25535 173.413 4.37862 173.1 4.31874C173.038 4.30702 172.495 4.23191 171.991 4.14146C171.705 4.09013 171.433 4.01823 171.395 4.01122C171.219 3.97921 171.162 3.99858 170.918 3.95399C170.297 3.8406 169.466 3.67081 168.858 3.55873C168.661 3.52242 168.471 3.49606 168.333 3.47565C168.28 3.46776 168.234 3.46089 168.2 3.45466C168.015 3.42089 167.785 3.35336 167.598 3.32204C166.905 3.20253 165.84 3.15079 165.53 2.99362C164.849 3.0204 163.453 2.77662 163.549 2.86272C161.75 2.62558 156.95 2.95002 157.084 2.86132C156.077 3.06402 156.162 2.98347 155.737 3.03344C155.262 3.09401 155.511 3.08389 155.134 3.13282C154.437 3.22561 153.767 3.32779 153.087 3.45186C152.903 3.48564 152.717 3.51982 152.53 3.55465C152.668 3.51113 152.806 3.46761 152.944 3.42409C151.999 3.59484 152.332 3.57409 151.37 3.76157C149.603 4.10627 150.343 3.93507 150.073 3.93891C150.151 3.96923 148.062 4.35241 147.849 4.38639C147.721 4.40658 148.266 4.24687 146.991 4.5037C147.064 4.50786 147.137 4.51202 147.211 4.51618C146.624 4.60142 145.047 4.92679 144.778 4.97115C144.654 4.99147 143.968 4.97576 143.385 5.19839C143.309 5.19477 143.233 5.19116 143.157 5.18754C142.491 5.33342 141.824 5.4793 141.158 5.62517C141.045 5.61414 140.933 5.6031 140.82 5.59206C140.607 5.63178 140.394 5.67151 140.182 5.71123C140.328 5.71241 140.474 5.71358 140.621 5.71476C139.305 5.94757 137.709 6.29065 137.421 6.2483C137.193 6.30555 136.964 6.3628 136.736 6.42005C136.685 6.43287 136.633 6.44558 136.582 6.45821C136.387 6.46192 136.192 6.46432 135.998 6.46543C134.652 6.69278 134.631 6.70766 133.708 6.85557C133.741 6.82699 133.775 6.79837 133.808 6.7697C133.129 6.88799 131.879 7.03744 130.885 7.08977C130.413 7.11845 129.6 7.10745 129.489 7.11139C129.377 7.12046 128.267 7.25922 128.148 7.13942C126.513 7.16809 125.797 7.05333 125.137 7.00739C124.709 6.97397 124.51 6.98437 124.026 6.93807C123.333 6.87131 122.64 6.76582 122.242 6.70975C122.015 6.67782 121.968 6.69779 121.811 6.67461C121.071 6.56041 121.508 6.60595 120.73 6.47191C120.701 6.46693 120.595 6.45314 120.437 6.42978C120.203 6.3953 119.851 6.34083 119.476 6.26822C119.13 6.20121 118.24 5.99747 118.161 5.98281C117.811 5.91793 118.077 6.04287 116.894 5.73514C116.926 5.75543 116.959 5.77573 116.991 5.79603C115.501 5.55394 115.278 5.44868 114.979 5.38845C114.941 5.38096 114.575 5.33727 114.36 5.29363C113.996 5.21984 113.855 5.15979 113.774 5.14325C113.49 5.08507 112.528 4.92023 111.907 4.77164C112.021 4.88891 109.818 4.51151 109.351 4.31568C108.958 4.26374 108.565 4.2118 108.173 4.15986C108 4.10972 107.827 4.05958 107.655 4.00944C107.544 4.00668 107.434 4.00392 107.324 4.00115C106.764 3.85737 106.204 3.71359 105.645 3.56981C105.602 3.60105 105.558 3.63228 105.515 3.66352C105.357 3.62956 105.199 3.5956 105.042 3.56164C104.923 3.50833 104.805 3.45501 104.687 3.40169C104.496 3.37174 104.305 3.34179 104.114 3.31184C104.106 3.31055 104.097 3.30926 104.089 3.30797C104.038 3.32095 103.986 3.33403 103.934 3.3472C102.897 3.19747 103.462 3.04882 101.453 2.97117C101.146 2.91646 100.838 2.86517 100.53 2.81732C100.172 2.86699 99.5208 2.75997 98.9892 2.73826C98.6148 2.7234 98.6335 2.75713 98.1241 2.73609C97.6144 2.71762 97.6334 2.68824 97.5937 2.6864C97.1777 2.67327 96.8637 2.69856 96.5586 2.69201C96.5126 2.69135 96.3975 2.65127 96.0081 2.65263C95.6187 2.65532 95.3851 2.69963 94.8059 2.71391C94.5091 2.72223 94.4218 2.69418 94.1584 2.70554C92.9003 2.75975 91.6646 3.05807 90.7061 2.99666C90.5405 3.03766 89.548 3.2443 88.8283 3.40306C88.638 3.44395 88.4654 3.47899 88.3291 3.50342C87.2868 3.69004 87.6808 3.5776 87.2657 3.64801C87.206 3.65809 86.8914 3.72997 86.0178 3.89078C85.8615 3.91955 85.9017 3.93397 85.8793 3.93844C84.8612 4.12816 82.8811 4.48066 81.7625 4.68647C81.6626 4.70482 81.1505 4.86157 80.2494 4.94765C78.9469 5.25165 76.4493 5.58764 74.7336 5.99964C74.4938 6.04636 74.1983 6.07969 74.0921 6.10027C73.3747 6.23957 73.4336 6.27052 72.4859 6.41855C72.2166 6.46075 71.8683 6.51047 71.4023 6.56493C71.5812 6.56873 71.0847 6.68483 70.3721 6.78016C69.3001 6.91613 70.0538 6.75913 69.1929 6.86473C69.1948 6.88214 69.1967 6.89955 69.1986 6.91696C67.2075 7.06853 66.815 7.16751 64.8091 7.2096C64.0873 7.22094 63.0229 7.15639 62.8515 7.14839C62.7852 7.14806 61.9953 7.1557 61.92 7.15011C61.4961 7.1278 61.2583 7.09192 60.8932 7.06385C59.6865 6.97554 58.247 6.83372 58.5194 6.76921C58.1871 6.74648 57.8548 6.71999 57.5227 6.68973C57.0205 6.56767 56.567 6.48692 56.1886 6.42309C55.6599 6.33426 55.2823 6.29039 55.1454 6.20266C54.9275 6.18369 54.7096 6.16473 54.4917 6.14576C49.6116 5.22385 44.7314 4.30193 39.8513 3.38001C39.609 3.33421 39.3664 3.2906 39.1233 3.24912C38.9219 3.23367 36.7422 2.9256 36.6285 2.92258C36.1148 2.8475 36.6682 2.8233 35.6105 2.7468C35.4909 2.76892 35.3716 2.79156 35.2525 2.81471C33.9253 2.73794 34.5652 2.74984 34.0418 2.7008C33.8223 2.69548 33.8921 2.72258 33.5954 2.71397C31.9856 2.63887 28.6819 2.78219 26.9386 3.03985C26.5868 3.08592 26.6368 3.05689 26.5275 3.0716C26.227 3.11288 25.6393 3.22848 25.0406 3.33397C24.8897 3.36038 24.7364 3.38806 24.5809 3.41705C20.7931 4.12302 15.654 5.06654 11.9572 5.73317C11.6954 5.78034 11.658 5.75934 11.4813 5.79093C11.2365 5.83484 10.6945 5.9587 10.4369 6.00445C10.1943 6.04761 10.0353 6.05604 9.77568 6.10205C8.58754 6.31235 6.9994 6.64488 5.71915 6.82132C5.61148 6.83614 4.26166 6.97557 4.23024 6.97405C4.04591 6.96461 5.21492 6.67737 3.26273 6.9778C4.98705 6.59974 4.42736 6.60526 2.16558 6.97931C3.29336 6.7562 4.42115 6.53308 5.54894 6.30996C5.54844 6.29832 5.54795 6.28668 5.54746 6.27503C4.50827 6.41096 3.48418 6.58288 1.91898 6.86984C1.9658 6.85023 2.01262 6.83062 2.05943 6.81101C3.43122 6.50051 5.09603 6.17954 6.13479 5.91146C4.58186 6.14667 3.02894 6.38189 1.47601 6.61711C1.55154 6.59443 1.62706 6.57176 1.70258 6.54908C2.43825 6.38943 4.05158 6.07504 4.66211 5.94027C6.99391 5.42564 2.59809 6.26656 3.31203 6.08494C5.78932 5.624 8.26662 5.16305 10.7439 4.70211C10.8243 4.65154 1.27758 6.33641 1.35638 6.21439C2.13358 6.06203 2.91079 5.90967 3.688 5.75731C3.3361 5.79577 2.9842 5.83424 2.6323 5.87271C2.72635 5.84651 2.8204 5.82032 2.91445 5.79412C4.22407 5.52835 5.5337 5.26258 6.84332 4.99681C2.85383 5.76321 0.995302 6.09488 4.50537e-05 6.06612C0.107348 6.04062 0.21465 6.01511 0.321952 5.98961C1.21127 5.95779 5.28694 5.15314 7.45227 4.72195C7.00286 4.76656 5.0975 5.15281 4.68942 5.20537C4.57377 5.2202 4.96789 5.11929 4.70026 5.15529C4.00081 5.2496 1.03971 5.75589 1.46077 5.63274C1.73192 5.5535 6.47572 4.62827 7.40299 4.45809C5.22148 4.81415 2.98063 5.2178 0.790742 5.56435C2.15019 5.22337 3.34885 4.89293 5.85816 4.41954C6.61502 4.23249 1.28975 5.16379 1.16197 5.16272C2.07678 4.9651 2.99159 4.76748 3.9064 4.56986C3.12984 4.72204 2.35327 4.87422 1.5767 5.0264C1.57281 5.01819 1.56892 5.00997 1.56503 5.00176C3.57253 4.58532 5.40225 4.16741 7.70937 3.74167C7.62644 3.70986 6.2474 3.97213 5.57778 4.09676ZM227.651 2.62108C227.694 2.6614 226.862 2.60472 226.392 2.59043C226.463 2.59986 226.533 2.60947 226.603 2.61926C225.602 2.55984 223.735 2.57578 223.668 2.65983C222.955 2.69416 223.268 2.61889 223.038 2.621C222.947 2.62103 222.018 2.70621 221.271 2.72908C221.094 2.74497 220.917 2.76198 220.741 2.78013C220.709 2.80801 220.677 2.83593 220.646 2.86389C220.397 2.85987 220.148 2.8581 219.899 2.85857C222.466 2.53926 225.064 2.45951 227.647 2.62083C227.648 2.62091 227.65 2.621 227.651 2.62108ZM201.71 6.1877C201.481 6.2271 201.223 6.27149 200.967 6.31636C200.129 6.46486 199.308 6.58356 199.549 6.59944C200.025 6.52376 200.5 6.44034 200.973 6.34918C201.116 6.32163 201.259 6.29407 201.402 6.26652C201.505 6.24025 201.607 6.21397 201.71 6.1877ZM105.768 3.52885C105.255 3.38919 104.76 3.30627 104.135 3.19817C103.812 3.14248 103.454 3.08339 103.037 3.01269C103.036 3.02675 103.035 3.0408 103.035 3.05486C103.267 3.0759 103.673 3.13947 104.13 3.22474C104.668 3.32477 105.275 3.44219 105.768 3.52885ZM251.273 6.46944C251.448 6.50734 251.623 6.54523 251.797 6.58313C251.069 6.5236 250.951 6.44768 250.142 6.30399C250.094 6.29535 250.107 6.31541 250.09 6.31234C249.892 6.27657 249.713 6.22207 249.535 6.18904C249.19 6.12535 248.906 6.09354 248.296 5.97888C247.824 5.89015 247.826 5.8569 247.66 5.82677C247.519 5.80119 246.102 5.62894 245.209 5.42218C243.509 5.02887 250.752 6.36493 251.273 6.46944ZM256.34 7.47885C256.17 7.4475 256.001 7.41616 255.832 7.38482C256.35 7.43014 255.321 7.24568 254.566 7.10582C254.598 7.0624 256.191 7.38093 256.907 7.50008C256.718 7.49301 256.529 7.48593 256.34 7.47885ZM234.934 3.37478C235.597 3.49373 235.476 3.53274 235.445 3.54534C235.234 3.50593 235.023 3.46651 234.812 3.42709C234.852 3.40965 234.893 3.39222 234.934 3.37478ZM239.924 4.28535C239.71 4.28735 238.267 4.03626 237.584 3.91216C237.555 3.9066 237.746 3.91936 237.263 3.83132C237.118 3.80491 235.678 3.61962 236.009 3.58638C237.313 3.81925 238.617 4.05212 239.922 4.28498C239.922 4.2851 239.923 4.28523 239.924 4.28535ZM241.373 4.58078C241.099 4.54284 240.826 4.50491 240.552 4.46697C240.415 4.42178 240.279 4.37658 240.142 4.33138C240.452 4.38422 240.761 4.43706 241.071 4.4899C241.171 4.52019 241.272 4.55048 241.373 4.58078ZM36.3065 2.38739C36.3671 2.41409 36.4275 2.44092 36.4878 2.46789C36.7281 2.50049 37.9127 2.55714 37.5434 2.49371C37.1315 2.45217 36.7192 2.41674 36.3065 2.38739ZM31.315 2.15399C31.0685 2.1488 30.8218 2.14578 30.575 2.14493C30.2931 2.19101 30.012 2.23992 29.7317 2.29163C30.9597 2.2383 32.2659 2.26947 32.055 2.16614C32.3366 2.16509 32.6181 2.16686 32.8996 2.17145C32.6618 2.21183 32.6943 2.22147 33.4287 2.26749C33.5913 2.21256 34.3513 2.26522 35.221 2.31529C34.5891 2.26651 33.9561 2.23199 33.3225 2.2118C33.3228 2.2013 33.323 2.19081 33.3233 2.18032C34.7368 2.23415 32.9815 2.09171 32.0588 2.14489C31.9862 2.13118 31.9134 2.11766 31.8406 2.10432C31.6652 2.11978 31.49 2.13634 31.315 2.15399ZM134.641 6.25911C134.458 6.27385 134.276 6.28744 134.094 6.29988C133.408 6.52177 134.822 6.22683 135.852 6.15855C135.626 6.14167 136.196 6.0309 136.646 5.93856C136.886 5.88986 137.092 5.85051 137.122 5.84292C136.958 5.84752 136.795 5.85212 136.631 5.85672C136.616 5.85719 136.601 5.85765 136.586 5.8581C135.941 6.00631 135.293 6.14004 134.641 6.25911ZM129.48 6.57461C130.115 6.64301 127.004 6.67384 125.964 6.56281C125.711 6.54453 125.263 6.47459 125.08 6.46416C124.969 6.46916 124.857 6.47372 124.745 6.47786C124.618 6.42828 122.588 6.26219 121.792 6.14906C121.72 6.12004 121.648 6.09085 121.576 6.06147C121.287 6.02158 120.997 5.97876 120.708 5.93306C120.748 5.92249 120.787 5.91187 120.826 5.9012C120.731 5.89325 120.636 5.88497 120.541 5.87638C120.417 5.86543 120.293 5.85449 120.169 5.84354C119.328 5.71008 119.861 5.71299 119.227 5.62467C118.521 5.52647 119.657 5.7962 119.629 5.82848C119.847 5.86551 120.171 5.92064 120.521 5.98057C121.097 6.08018 121.742 6.17587 122.107 6.22906C122.447 6.27468 122.051 6.30124 123.531 6.40726C123.851 6.46223 124.173 6.51367 124.494 6.56155C125.091 6.58909 125.688 6.60442 126.284 6.60759C126.393 6.63786 126.503 6.66772 126.613 6.69717C126.677 6.70929 128.057 6.69126 127.983 6.66724C128.54 6.72284 129.688 6.73122 130.895 6.66829C131.01 6.6489 131.125 6.62905 131.24 6.60875C130.076 6.7006 130.869 6.61498 130.52 6.60683C130.319 6.60214 129.705 6.5934 129.48 6.57461ZM44.0942 3.62453C42.1959 3.33072 43.3735 3.50054 41.3334 3.1195C41.47 3.17719 41.6066 3.23487 41.7433 3.29255C42.7569 3.4231 44.4003 3.76911 44.0962 3.62489C44.0955 3.62477 44.0949 3.62465 44.0942 3.62453ZM24.2845 2.99306C24.3622 2.97714 24.4315 2.96265 24.4935 2.94935C25.2746 2.78807 24.8981 2.80007 26.1466 2.59429C26.1473 2.59419 26.1479 2.5941 26.1485 2.59401C25.5898 2.67242 25.0326 2.76208 24.4774 2.8629C24.3358 2.88863 24.1942 2.91436 24.0525 2.94009C24.1299 2.95775 24.2072 2.9754 24.2845 2.99306ZM87.7481 3.101C88.327 3.00069 88.5181 2.96066 88.7386 2.92279C88.9097 2.89375 89.0987 2.86554 89.5097 2.81824C90.8742 2.54002 89.7125 2.73215 89.7034 2.67955C89.3914 2.74633 89.0803 2.81662 88.7701 2.8904C88.7575 2.89191 88.7452 2.89335 88.7333 2.89473C88.0105 2.97994 88.7169 2.82286 88.716 2.81816C88.7154 2.81828 88.7147 2.8184 88.7141 2.81852C88.7111 2.80255 88.7356 2.79451 88.4365 2.84038C88.207 2.92726 87.9776 3.01413 87.7481 3.101ZM92.1194 2.35857C91.7712 2.43284 91.6188 2.4904 92.5445 2.42226C92.5451 2.4222 92.5458 2.42214 92.5464 2.42208C92.6131 2.33328 93.5064 2.32298 93.9111 2.29586C94.0168 2.2807 94.1226 2.26592 94.2285 2.25155C93.5252 2.26956 92.8219 2.30523 92.1194 2.35857ZM107.654 3.42064C107.642 3.50858 106.857 3.37061 107.945 3.6568C108.159 3.69521 108.373 3.73361 108.587 3.77201C108.731 3.77911 108.875 3.78621 109.02 3.79331C111.704 4.45805 112.564 4.3405 107.958 3.58427C107.957 3.58421 107.957 3.58414 107.956 3.58408C107.856 3.5296 107.755 3.47512 107.654 3.42064ZM102.894 2.56067C102.853 2.60145 102.812 2.64229 102.771 2.68319C102.196 2.48375 101.418 2.48043 100.26 2.29454C100.153 2.29909 100.046 2.30405 99.9393 2.30942C99.5088 2.18405 95.2054 2.1034 96.1382 2.19841C96.5445 2.22373 97.4295 2.19511 97.5059 2.19984C97.764 2.20983 98.099 2.26011 98.5338 2.27914C98.7851 2.28977 99.3179 2.27293 99.8306 2.3147C100.891 2.39306 102.731 2.72394 104.186 2.92514C104.31 2.94171 104.431 2.95651 104.549 2.96924C104.656 3.00345 104.763 3.03765 104.869 3.07186C105.997 3.27376 105.629 3.15983 106.667 3.40767C107.152 3.35555 105.33 3.05784 104.2 2.85074C103.56 2.73401 103.144 2.65914 103.526 2.65541C103.525 2.6553 103.525 2.65519 103.524 2.65509C103.314 2.62203 103.104 2.59055 102.894 2.56067ZM71.9798 5.97606C71.9045 5.9544 70.5761 6.22686 70.8761 6.08246C70.4444 6.18119 70.0108 6.27343 69.5753 6.35917C69.5797 6.36755 69.5841 6.37594 69.5885 6.38432C70.0247 6.32477 70.4598 6.25869 70.8938 6.18608C70.8976 6.1997 70.9014 6.21333 70.9051 6.22696C71.168 6.16654 71.7776 6.06148 72.3975 5.94562C73.2716 5.78319 74.1733 5.63485 74.1313 5.67253C74.2683 5.6256 74.4052 5.57866 74.5422 5.53172C75.8131 5.35251 76.8863 5.09023 78.2697 4.88862C78.3728 4.85166 78.476 4.8147 78.5791 4.77775C78.651 4.77861 78.7228 4.77947 78.7946 4.78033C79.2951 4.68866 79.7956 4.59699 80.296 4.50532C81.9155 4.14535 78.7353 4.66488 78.3529 4.74475C78.3021 4.75542 78.3166 4.78967 77.9988 4.85483C77.4344 4.97044 74.2581 5.52686 73.2825 5.73346C73.2696 5.71134 73.2568 5.68922 73.2439 5.6671C72.9576 5.73764 72.6713 5.80818 72.385 5.87872C72.2501 5.91181 72.1151 5.94426 71.9798 5.97606ZM113.693 4.64502C113.76 4.6825 113.827 4.71999 113.895 4.75747C115.134 4.96398 115.907 5.13023 115.606 4.99135C115.605 4.99123 115.604 4.99111 115.604 4.99098C114.967 4.87566 114.33 4.76034 113.693 4.64502ZM206.314 4.931C206.273 4.88911 205.679 4.98142 204.923 5.15824C204.963 5.16529 205.002 5.17235 205.041 5.17941C205.431 5.06434 205.94 5.04286 207.165 4.80435C207.161 4.78023 207.156 4.75611 207.152 4.73199C206.872 4.79833 206.593 4.86466 206.314 4.931ZM112.63 4.43561C112.259 4.33689 111.187 4.2259 111.881 4.35996C112.412 4.46242 112.829 4.4886 112.63 4.43561ZM20.0292 3.73959C20.3091 3.69252 20.5891 3.64545 20.869 3.59838C21.0106 3.55071 21.1521 3.50304 21.2936 3.45537C21.293 3.4555 21.2923 3.45562 21.2917 3.45574C20.8708 3.55036 20.45 3.64497 20.0292 3.73959ZM84.2105 3.76583C85.1562 3.58609 86.102 3.40635 87.0477 3.22661C87.0546 3.21147 87.0616 3.19633 87.0685 3.18119C86.1296 3.40707 85.7387 3.42563 85.517 3.4637C85.518 3.46351 85.519 3.46333 85.5199 3.46315C84.8082 3.58512 84.1305 3.70362 83.456 3.81305C83.7075 3.79731 83.959 3.78157 84.2105 3.76583ZM80.9509 4.28726C81.128 4.35202 81.3382 4.32415 82.7796 3.98614C82.7199 3.98525 82.6602 3.98436 82.6004 3.98347C81.8484 4.13112 81.4131 4.23502 81.5361 4.16101C81.3411 4.20309 81.146 4.24518 80.9509 4.28726ZM95.7081 2.15668C95.5333 2.12304 94.1547 2.20856 94.231 2.22465C94.261 2.22001 96.0477 2.20463 95.7081 2.15668ZM216.822 2.94683C216.502 2.99951 216.182 3.05219 215.861 3.10488C216.284 3.01536 216.706 2.92584 217.129 2.83632C217.027 2.87315 216.924 2.90999 216.822 2.94683ZM220.264 2.28006C220.491 2.26956 219.767 2.42645 221.119 2.31481C220.136 2.40662 219.157 2.53293 218.184 2.69344C218.639 2.60522 219.094 2.52446 219.552 2.45119C219.469 2.43692 219.385 2.4229 219.302 2.40913C219.622 2.36243 219.943 2.3194 220.264 2.28006ZM221.327 2.23837C220.789 2.20465 223.588 2.00774 223.851 2.03344C223.909 2.03359 224.187 2.07729 224.289 2.08664C223.866 2.09345 223.443 2.10663 223.021 2.12616C223.163 2.13531 223.305 2.14518 223.446 2.15577C222.952 2.17893 222.459 2.21078 221.966 2.25129C222.176 2.22055 222.386 2.19138 222.596 2.16379C222.173 2.18227 221.75 2.20713 221.327 2.23837ZM210.118 4.14044C210.473 4.0758 210.829 4.01116 211.184 3.94651C211.108 3.93564 211.033 3.92476 210.957 3.91388C210.745 3.95354 210.533 3.9932 210.32 4.03286C210.253 4.06872 210.186 4.10458 210.118 4.14044ZM217.339 2.75977C217.303 2.77541 217.261 2.78993 217.216 2.80337C216.647 2.97185 215.516 2.96484 217.054 2.76752C217.107 2.76073 217.16 2.75536 217.207 2.75184C217.304 2.74457 217.371 2.74611 217.339 2.75977ZM224.902 2.03296C226.006 1.9541 225.754 2.13775 224.715 2.08198C224.663 2.07932 224.82 2.03935 224.902 2.03296ZM233.125 2.82414C233.214 2.84145 233.359 2.93115 234.223 3.0329C234.363 3.0661 234.502 3.0993 234.642 3.1325C234.451 3.11351 233.459 2.94084 232.71 2.79754C232.151 2.69052 231.729 2.61201 231.899 2.61289C232.189 2.66054 232.446 2.7011 232.719 2.7495C232.849 2.77262 232.983 2.79695 233.125 2.82414ZM230.455 2.15899C230.033 2.10571 229.611 2.05877 229.187 2.01818C229.325 2.05132 229.462 2.08512 229.599 2.11959C229.391 2.10198 229.183 2.08591 228.975 2.07138C228.623 2.0045 228.269 1.94202 227.915 1.884C228.837 1.94292 229.758 2.03199 230.676 2.15103C230.602 2.15349 230.529 2.15614 230.455 2.15899ZM219.178 2.15002C219.993 2.06365 220.987 1.9198 222.315 1.83988C222.315 1.8399 222.316 1.83992 222.317 1.83994C222.383 1.83615 222.502 1.85515 222.715 1.84485C222.895 1.79781 226.486 1.75261 226.205 1.82019C224.817 1.82476 224.297 1.78831 223.967 1.89264C223.899 1.87318 223.831 1.85388 223.762 1.83474C222.427 1.84234 222.051 1.95224 221.308 2.03879C221.309 2.02272 221.311 2.00666 221.312 1.9906C220.814 2.03204 220.316 2.0823 219.819 2.14135C219.89 2.14316 219.962 2.14516 220.033 2.14733C219.857 2.16788 219.682 2.18955 219.506 2.2123C219.073 2.22092 218.529 2.28979 219.178 2.15002ZM232.356 2.47743C232.419 2.46973 232.562 2.48098 232.764 2.50852C233.887 2.6621 236.83 3.26846 238.306 3.52247C237.379 3.42301 235.972 3.10946 234.976 2.92256C233.049 2.5613 234.373 2.85369 234.042 2.81175C233.918 2.79597 233.263 2.62984 232.759 2.53539C232.603 2.50615 232.462 2.48486 232.356 2.47743ZM216.223 2.67319C216.582 2.60978 216.882 2.55225 217.159 2.49923C217.621 2.41156 218.023 2.34183 218.544 2.28971C218.477 2.30897 218.409 2.32838 218.341 2.34797C218.213 2.36418 217.673 2.44403 217.165 2.53098C216.54 2.63724 215.959 2.73313 216.223 2.67319ZM240.852 4.0299C239.004 3.64085 239.899 3.91892 238.949 3.65839C239.585 3.77191 240.221 3.88543 240.857 3.99894C240.856 4.00926 240.854 4.01958 240.852 4.0299ZM110.589 3.59384C109.808 3.44508 108.939 3.26039 108.463 3.21769C108.993 3.32383 109.523 3.42998 110.053 3.53612C110.232 3.55536 110.411 3.5746 110.589 3.59384ZM133.12 5.52129C132.939 5.53132 132.227 5.62946 132.152 5.63429C132.012 5.64585 132.049 5.62683 132.046 5.62291C131.129 5.69477 131.979 5.68243 131.3 5.73935C131.184 5.75468 129.584 5.80488 128.933 5.80304C127.932 5.81607 126.932 5.77513 126.558 5.75726C125.927 5.73106 124.754 5.68772 123.721 5.56933C123.295 5.52079 123.151 5.47293 122.724 5.41584C122.144 5.33721 121.446 5.23136 120.687 5.09281C117.864 4.57825 114.139 3.90488 112.244 3.5359C111.65 3.4202 111.089 3.27629 110.774 3.22062C110.523 3.18813 110.273 3.15565 110.022 3.12317C109.282 2.8559 109.006 2.91918 108.182 2.77718C107.658 2.68694 107.42 2.60434 107.35 2.59133C106.884 2.50514 106.652 2.47985 106.286 2.41451C105.875 2.34111 105.288 2.21435 105.141 2.18997C105.065 2.17743 105.253 2.24944 104.342 2.08992C104.179 2.06135 103.98 2.0262 103.738 1.98434C102.115 1.70467 100.498 1.51463 98.8252 1.4196C99.3739 1.60167 99.8584 1.53216 100.54 1.59093C100.723 1.60711 100.605 1.61963 100.763 1.63439C101.212 1.6745 102.071 1.75624 102.44 1.81598C102.838 1.87949 102.693 1.91331 103.201 1.97176C103.226 1.9748 103.149 1.93924 103.268 1.95444C103.701 2.01024 104.026 2.0647 104.336 2.12355C104.887 2.22838 105.39 2.33922 106.352 2.51963C107.349 2.70669 113.408 3.81526 113.613 3.86878C114.683 4.1502 108.302 2.95902 107.557 2.81344C107.296 2.76247 107.575 2.78872 107.337 2.73949C107.237 2.71874 106.321 2.59679 105.424 2.43332C105.123 2.37847 104.738 2.30503 104.317 2.22344C103.228 2.00792 101.88 1.80561 101.128 1.72748C96.9409 1.27273 92.7153 1.43261 88.6027 2.19542C83.9141 3.06472 79.2284 3.93132 74.5117 4.8119C74.3226 4.84723 74.0788 4.92219 73.4625 5.03731C73.0653 5.11147 72.6676 5.1857 72.2695 5.25999C67.1008 6.22806 61.6716 6.24107 56.4076 5.2506C50.9586 4.22895 45.4909 3.20507 40.0721 2.19763C39.4283 2.07792 38.7823 1.97323 38.1352 1.88359C35.5864 1.53122 33.0292 1.43186 30.436 1.5174C30.1151 1.55187 29.7949 1.58995 29.4753 1.63162C30.2953 1.55417 31.8038 1.57167 31.9405 1.5764C31.9898 1.57658 32.3014 1.54928 32.8041 1.55729C33.511 1.5698 33.8198 1.60657 33.8777 1.60801C34.0573 1.6153 33.9405 1.58846 34.1121 1.59599C35.391 1.65633 36.3794 1.73824 37.5458 1.88238C38.6624 2.0253 39.3032 2.16553 40.0558 2.2852C40.1919 2.30726 40.3318 2.32845 40.4788 2.34894C40.5839 2.38639 40.6889 2.42383 40.794 2.46127C41.5225 2.52027 45.7761 3.32325 47.499 3.64913C48.0427 3.75196 47.9416 3.76438 48.1244 3.79851C48.241 3.82027 48.2024 3.77207 49.6239 4.04562C50.3395 4.18335 50.5219 4.24728 50.8813 4.31343C51.0766 4.34934 51.0503 4.31481 51.3307 4.36718C52.9523 4.67006 54.2748 4.92666 55.8614 5.22848C56.2768 5.30746 56.3058 5.3344 56.3885 5.35254C56.3947 5.3539 56.4011 5.3552 56.4081 5.35647C56.7789 5.42384 57.4303 5.50157 58.3775 5.63408C59.9346 5.88118 63.0705 6.07557 64.3595 6.06699C64.5488 6.06984 64.7059 6.09774 64.8453 6.09569C65.0563 6.09237 65.1385 6.06005 65.1755 6.05925C65.8803 6.04208 65.4571 6.08124 65.929 6.05898C66.1834 6.04534 66.4473 6.00162 67.0372 5.96161C67.8159 5.90466 67.6656 5.95336 67.9907 5.92338C68.025 5.91961 68.0329 5.89118 68.3521 5.8609C69.5072 5.75576 71.1492 5.51964 72.2775 5.30262C72.3319 5.29242 72.3852 5.28246 72.4373 5.27274C72.7603 5.21242 73.004 5.18649 73.4545 5.10269C74.3622 4.9338 79.5188 3.95821 79.9439 3.8901C79.9887 3.88291 79.5377 4.01009 80.2687 3.87228C80.4778 3.81534 80.6869 3.7584 80.896 3.70146C81.2563 3.6628 81.6166 3.62413 81.9769 3.58546C81.9463 3.49228 84.0326 3.08734 84.03 3.18895C84.2594 3.15022 84.4887 3.11148 84.7181 3.07274C85.1815 2.91631 85.5031 2.88204 86.4158 2.67053C86.5631 2.66444 86.7104 2.65836 86.8577 2.65227C86.8912 2.63173 86.9247 2.61119 86.9582 2.59065C87.4632 2.57372 88.2545 2.34823 88.3522 2.32955C88.4469 2.31143 88.5359 2.29574 88.6189 2.28185C88.8637 2.24094 89.0559 2.21804 89.1872 2.19484C89.8417 2.07379 91.2661 1.84573 92.042 1.78361C92.0784 1.78056 92.046 1.81618 92.2664 1.79821C92.6638 1.76739 92.6988 1.71528 93.2334 1.7294C93.3393 1.70727 93.4454 1.68555 93.5517 1.66422C93.666 1.6637 93.7802 1.66363 93.8944 1.66402C94.5656 1.61984 95.2379 1.59152 95.9107 1.5791C95.3001 1.64523 96.0036 1.658 96.6684 1.61851C96.8935 1.60518 96.6941 1.57042 96.7692 1.56583C96.8732 1.53394 99.8906 1.68519 100.085 1.75061C100.229 1.75222 100.372 1.75455 100.515 1.75759C100.585 1.78548 100.655 1.81353 100.725 1.84176C100.804 1.84228 100.883 1.84302 100.962 1.84398C101.74 1.94943 103.767 2.17369 104.129 2.25837C104.218 2.27621 104.226 2.29772 104.297 2.33134C104.383 2.37159 104.559 2.42923 105.07 2.51951C105.107 2.50128 105.144 2.48306 105.181 2.46484C105.396 2.50144 105.611 2.53805 105.827 2.57465C106.229 2.65204 106.807 2.80365 106.821 2.83595C106.95 2.84218 107.079 2.8484 107.208 2.85463C107.535 2.97404 109.341 3.29071 110.073 3.39049C110.282 3.44707 110.491 3.50365 110.7 3.56023C110.988 3.5928 111.277 3.62536 111.566 3.65793C112.227 3.77497 111.523 3.67907 111.663 3.7082C111.96 3.7697 113.487 3.99496 113.374 4.0485C113.581 4.08731 113.787 4.12611 113.994 4.16492C114.104 4.16414 114.214 4.16337 114.325 4.16259C114.666 4.30005 115.285 4.38966 116.54 4.65093C116.649 4.65429 116.758 4.65765 116.867 4.66101C117.252 4.75705 117.637 4.85309 118.022 4.94913C118.107 4.93695 118.192 4.92478 118.278 4.9126C118.448 4.94034 118.618 4.96809 118.788 4.99583C119.121 5.12086 119.751 5.17067 120.061 5.2545C120.514 5.37682 120.15 5.35408 119.296 5.2033C119.323 5.23039 119.929 5.35011 120.615 5.47867C121.357 5.61958 122.198 5.74041 122.506 5.78122C122.468 5.76695 122.43 5.75263 122.392 5.73826C121.799 5.65954 121.207 5.56853 120.617 5.4653C120.602 5.46251 120.586 5.45972 120.57 5.45693C120.423 5.39464 120.471 5.38208 120.63 5.3983C120.995 5.43844 121.949 5.61111 122.478 5.67329C122.547 5.68093 122.945 5.69856 123.709 5.7902C124.004 5.8297 125.157 5.99903 125.379 6.01493C127.17 6.15454 125.855 6.0008 127.608 6.14033C127.243 6.06983 128.251 6.15463 129.302 6.12373C129.481 6.12579 130.994 6.01865 131.095 6.00494C131.731 5.9569 131.041 6.05813 131.961 5.97752C132.071 5.95494 132.18 5.93195 132.29 5.90854C132.504 5.89017 132.717 5.87021 132.931 5.84865C134.241 5.83591 134.531 5.68907 134.988 5.61262C135.172 5.57969 134.939 5.64939 135.417 5.56729C135.598 5.53551 135.794 5.47776 136.277 5.38913C136.366 5.37268 136.452 5.35699 136.535 5.34198C137.846 5.10396 138.392 5.09947 139.671 4.74524C139.886 4.7228 140.102 4.70036 140.317 4.67792C140.456 4.63062 140.595 4.58331 140.735 4.53601C141.84 4.39132 141.434 4.40396 141.829 4.33085C142.873 4.13779 145.011 3.75056 145.207 3.76487C146.087 3.48348 147.189 3.40986 147.543 3.33911C147.751 3.28595 147.96 3.23279 148.168 3.17964C148.419 3.14709 148.67 3.11455 148.92 3.08201C148.779 2.99347 150.085 2.86268 150.208 2.84131C150.34 2.81823 152.039 2.47184 152.875 2.31206C152.941 2.29937 153.002 2.28803 153.056 2.2782C153.785 2.13991 155.07 1.98841 155.183 1.97718C155.312 1.95799 156.562 1.77239 157.548 1.70436C158.409 1.5543 163.526 1.66131 163.205 1.65326C162.871 1.61944 162.395 1.58521 161.983 1.56677C160.942 1.45391 155.729 1.60976 152.859 2.22731C152.205 2.34676 151.667 2.44523 151.316 2.50918C147.502 3.20525 143.529 3.95048 139.699 4.65461C139.473 4.69605 139.434 4.67366 139.24 4.7091C138.947 4.76305 138.208 4.93089 137.919 4.98426C137.468 5.06727 136.978 5.15749 136.516 5.24226C135.868 5.36175 135.275 5.45328 134.934 5.50324C133.628 5.6931 132.724 5.7636 131.729 5.83573C131.418 5.86261 129.84 5.98904 128.756 5.96999C128.56 5.96251 128.363 5.9537 128.167 5.94355C128.725 5.9456 130.187 5.89344 130.864 5.84809C131.873 5.78885 132.399 5.75944 132.77 5.72419C133.082 5.70029 134.664 5.48471 135.38 5.36105C135.602 5.32508 135.653 5.34771 135.843 5.31534C136.054 5.27927 136.277 5.23932 136.508 5.19588C137.404 5.0268 138.405 4.83441 139.109 4.67841C138.748 4.75596 141.021 4.35056 141.14 4.32823C141.344 4.29011 141.56 4.22052 141.977 4.14272C142.778 3.99314 142.687 4.07119 143.677 3.82514C143.928 3.79607 144.179 3.76701 144.43 3.73795C144.431 3.65639 147.582 3.17865 148.454 2.91666C148.476 2.90149 144.401 3.63077 144.065 3.69194C142.048 4.0588 139.07 4.63499 137.112 4.98639C136.967 5.01252 136.744 5.05036 136.488 5.09294C135.709 5.2267 134.623 5.35792 134.517 5.3714C134.29 5.40406 134.499 5.40343 134.401 5.41787C132.393 5.69025 133.389 5.50333 133.12 5.52129ZM221.292 1.86056C220.685 1.9098 220.079 1.97209 219.474 2.04736C219.515 2.02423 219.557 2.00116 219.599 1.97815C219.877 1.94977 220.155 1.92414 220.434 1.90125C220.646 1.86799 220.859 1.83633 221.072 1.80627C221.146 1.82418 221.219 1.84228 221.292 1.86056ZM222.786 1.68401C223.315 1.64932 223.342 1.68793 223.464 1.68484C223.828 1.67765 224.143 1.65554 224.496 1.65206C224.09 1.74239 223.225 1.72823 222.786 1.68401ZM211.94 3.29105C212.059 3.2731 212.866 3.21882 213.747 2.9644C214.424 2.86646 215.101 2.76851 215.778 2.67057C214.629 2.84168 213.058 3.18041 212.498 3.28316C212.286 3.32217 212.24 3.30114 212.07 3.33235C211.092 3.51268 210.154 3.75503 210.036 3.67895C210.966 3.53379 211.788 3.31414 211.94 3.29105ZM217.841 2.22977C218 2.22328 218.159 2.21769 218.318 2.21299C217.926 2.27497 217.534 2.34241 217.144 2.41534C216.973 2.44728 216.802 2.47921 216.631 2.51114C216.78 2.46256 216.929 2.41397 217.078 2.36539C217.096 2.36202 217.114 2.35865 217.133 2.35528C217.369 2.31144 217.605 2.26962 217.841 2.22977ZM174.069 3.32027C174.417 3.38562 174.766 3.45097 175.114 3.51632C175.098 3.49832 174.699 3.42388 174.554 3.3867C174.555 3.38682 174.555 3.38694 174.556 3.38706C174.394 3.34548 174.468 3.33999 174.172 3.2762C174.137 3.29089 174.103 3.30558 174.069 3.32027ZM29.0446 1.59829C28.6273 1.60915 25.801 1.90876 24.3584 2.2257C23.7502 2.34723 23.3784 2.42799 23.5169 2.41819C23.6102 2.41149 23.9528 2.3503 24.3671 2.27242C24.9994 2.15176 25.8045 2.01728 26.1347 1.97143C26.8683 1.85237 28.8655 1.71614 29.0446 1.59829ZM19.4694 3.11025C19.3857 3.18015 22.7597 2.55862 23.0877 2.48792C23.0163 2.49352 22.9053 2.49702 22.8113 2.51067C22.3531 2.57755 20.1991 2.9888 19.4694 3.11025ZM154.444 1.87124C154.72 1.85761 154.997 1.84668 155.273 1.83846C155.197 1.81285 155.121 1.78745 155.044 1.76226C154.844 1.79718 154.643 1.8335 154.444 1.87124ZM127.944 5.9571C125.502 5.91987 123.063 5.67481 120.662 5.22542C118.525 4.82541 116.388 4.4254 114.25 4.0254C114.651 4.08546 115.052 4.14552 115.453 4.20559C117.161 4.52675 118.917 4.859 120.669 5.18826C122.928 5.61394 125.213 5.84641 127.375 5.89338C127.564 5.91587 127.754 5.93711 127.944 5.9571ZM210.634 3.37405C209.474 3.59026 208.509 3.79662 207.24 3.99211C208.435 3.72835 209.042 3.67754 210.2 3.40165C210.201 3.40153 210.202 3.40141 210.202 3.40129C210.346 3.39221 210.49 3.38313 210.634 3.37405ZM184.49 5.12815C184.634 5.14493 184.777 5.16171 184.921 5.1785C185.135 5.20362 185.35 5.22708 185.564 5.24895C185.352 5.21261 185.141 5.17472 184.929 5.1352C184.716 5.09537 184.503 5.05554 184.289 5.01571C184.356 5.05319 184.423 5.09067 184.49 5.12815ZM88.1889 2.11492C86.985 2.39425 83.8622 2.87889 82.8876 3.12646C82.8246 3.14253 83.416 3.05973 82.4777 3.28852C83.1918 3.14418 83.6954 3.03894 83.7412 2.98828C83.9564 2.96236 84.1717 2.93644 84.3869 2.91051C84.7378 2.83418 85.0887 2.75784 85.4396 2.6815C85.4089 2.72916 85.4364 2.72178 85.9732 2.59282C86.2223 2.55691 86.4714 2.52102 86.7204 2.48511C86.8219 2.4484 86.9234 2.41168 87.0249 2.37497C87.2434 2.359 87.4619 2.34304 87.6803 2.32707C88.5095 2.14526 87.9929 2.19363 88.1889 2.11492ZM92.463 1.50928C92.3093 1.48748 89.0839 1.93177 88.5854 2.1027C88.4993 2.12615 88.4914 2.13582 88.5898 2.12646C88.684 2.11763 88.8755 2.0911 89.1898 2.04706C89.8535 1.9301 90.5199 1.82879 91.1885 1.74325C90.6167 1.67321 92.4583 1.58011 92.6087 1.57955C93.3286 1.52599 94.2453 1.43939 94.7693 1.42203C95.2198 1.40613 95.488 1.42475 95.8047 1.41891C96.8841 1.39045 98.5877 1.45698 98.8252 1.4196C97.9865 1.37222 97.133 1.34913 96.2595 1.35465C95.3369 1.36589 94.5185 1.31868 92.7944 1.53251C92.3664 1.56234 92.5148 1.50709 92.463 1.50928ZM186.633 5.42394C186.58 5.48619 188.758 5.73601 188.775 5.7019C188.78 5.69056 188.071 5.61829 187.971 5.60024C187.97 5.60017 187.969 5.60009 187.969 5.60002C187.927 5.59297 188.143 5.59621 187.811 5.55176C187.418 5.51458 187.025 5.47196 186.633 5.42394ZM37.5415 1.68641C37.2635 1.48841 30.5242 1.23912 30.3276 1.39063C30.2739 1.39723 30.3496 1.40782 30.3287 1.41679C31.8967 1.29216 34.1337 1.3901 35.6173 1.52246C36.0312 1.55726 35.9094 1.52539 35.9329 1.52671C35.9339 1.5268 35.9349 1.52688 35.9358 1.52697C36.1716 1.54399 37.2237 1.7091 37.5415 1.68641ZM80.7685 3.54851C81.0521 3.50455 81.3357 3.46059 81.6192 3.41663C81.6876 3.38605 81.7559 3.35547 81.8242 3.32489C81.8236 3.32501 81.8229 3.32513 81.8223 3.32526C81.471 3.39967 81.1198 3.47409 80.7685 3.54851ZM70.9856 5.29796C71.0565 5.29935 71.1274 5.30056 71.1984 5.30159C71.5475 5.24609 71.896 5.18629 72.2438 5.12219C72.6068 5.05528 72.9698 4.98837 73.3328 4.92145C73.2625 4.94166 73.1923 4.96186 73.122 4.98206C74.1988 4.79987 74.6354 4.67425 75.2083 4.57359C75.2076 4.57371 75.207 4.57383 75.2063 4.57396C75.268 4.56317 75.3472 4.57452 75.5762 4.53263C76.1013 4.43659 77.6072 4.16506 77.7842 4.1057C78.1587 3.97966 75.1366 4.57073 74.5717 4.67366C74.3165 4.72016 74.0055 4.75537 73.8503 4.78383C73.6802 4.81509 73.4542 4.88818 73.04 4.96459C72.9819 4.97529 72.6416 5.03042 72.2391 5.09745C71.8015 5.17088 71.2892 5.24815 70.9856 5.29796ZM58.2736 5.42235C58.4904 5.48196 58.9559 5.51577 59.1251 5.54036C59.1656 5.54637 58.8471 5.531 59.229 5.58443C59.3392 5.5816 59.4493 5.57835 59.5594 5.57468C59.1301 5.53035 58.7014 5.47957 58.2736 5.42235ZM190.292 5.77106C190.23 5.76535 189.058 5.68038 189.002 5.67518C188.295 5.67071 190.724 5.85323 190.292 5.77106ZM219.537 1.61904C218.984 1.52009 225.385 1.14528 226.006 1.28297C225.974 1.32269 224.453 1.26673 225.249 1.33462C224.489 1.27981 222.387 1.3786 221.894 1.41683C221.594 1.43243 221.515 1.39947 221.47 1.40173C221.291 1.40431 219.728 1.61336 219.537 1.61904ZM231.269 1.76706C230.669 1.66914 230.067 1.58393 229.463 1.51152C230.177 1.58143 230.89 1.66924 231.6 1.77487C231.49 1.77184 231.38 1.76924 231.269 1.76706ZM232.028 1.86524C232.023 1.84503 232.395 1.9008 232.861 1.98816C233.482 2.10413 234.272 2.26056 234.578 2.31164C234.142 2.28526 233.518 2.14807 232.856 2.01376C232.584 1.95839 232.304 1.90625 232.028 1.86524ZM198.055 5.41237C197.108 5.49361 196.715 5.66892 197.858 5.48385C197.893 5.47792 198.094 5.40918 198.055 5.41237ZM87.8648 1.97951C87.7052 2.00845 85.7138 2.33523 85.603 2.37828C85.2529 2.515 86.5492 2.24428 86.9902 2.18886C87.7016 2.09964 86.6734 2.32763 88.3861 1.98142C88.3184 2.00834 88.2508 2.03526 88.1831 2.06217C88.3408 2.03346 88.4652 2.00841 88.5637 1.98641C89.094 1.86948 88.8714 1.83905 89.0222 1.8013C89.0769 1.78667 89.7106 1.68939 89.8242 1.66675C90.8466 1.45791 89.4475 1.66299 88.5377 1.84703C88.1861 1.91614 87.9061 1.97197 87.8648 1.97951ZM174.758 3.08554C172.903 2.69728 173.693 2.90633 171.783 2.54584C171.714 2.56426 174.51 3.06688 174.758 3.08554ZM106.223 2.25304C105.575 2.13618 104.967 2.02071 104.376 1.90818C103.207 1.6862 102.097 1.51875 100.884 1.42897C100.947 1.47931 102.853 1.67892 104.368 1.953C105.506 2.15044 106.436 2.30217 106.223 2.25304ZM15.1531 3.53029C18.0695 3.04425 21.1534 2.49669 24.3015 1.92138C29.2792 1.00048 34.5865 0.957104 39.4932 1.80779C39.774 1.85593 39.9721 1.89581 40.1224 1.9284C40.439 1.99718 40.5434 2.03137 40.7573 2.06884C40.9637 2.10504 40.9326 2.0721 41.2065 2.12313C46.3861 3.08823 51.4522 4.0236 56.4633 4.95207C61.0181 5.79613 65.6603 5.895 70.2046 5.27489C70.4992 5.23546 71.354 5.1255 72.2148 4.96733C73.1103 4.80428 74.0179 4.62793 74.326 4.52565C74.7835 4.37358 72.7055 4.81364 72.3575 4.87805C72.293 4.88999 72.2434 4.89727 72.2026 4.90195C72.0785 4.91609 72.0368 4.90597 71.906 4.92948C71.7216 4.96222 71.8777 4.95605 71.6635 4.99387C70.7555 5.15404 69.7575 5.28309 68.9291 5.37322C64.744 5.83322 60.5499 5.66514 56.4723 4.90411C52.6194 4.1849 48.7705 3.46411 44.88 2.73604C43.9089 2.55432 44.1131 2.56737 44.0642 2.55814C44.0635 2.55808 44.0629 2.55802 44.0622 2.55796C42.7937 2.32046 41.4807 2.07813 40.1404 1.83222C35.9615 1.05482 31.406 0.926667 27.1751 1.41848C26.2082 1.52794 25.2449 1.67012 24.2872 1.84474C21.3539 2.37958 18.4206 2.91441 15.4873 3.44924C15.3759 3.47626 15.2645 3.50327 15.1531 3.53029ZM92.0209 1.43659C91.5204 1.4021 91.4174 1.48036 89.6598 1.70994C89.5198 1.74839 89.3801 1.7875 89.2407 1.82732C90.1637 1.66676 91.0921 1.53631 92.0239 1.43629C92.0229 1.43639 92.0219 1.43649 92.0209 1.43659ZM80.5031 3.40847C80.1862 3.33988 76.3146 4.15329 74.5595 4.45672C74.2502 4.57865 76.79 4.07547 77.3914 3.9699C77.6917 3.91715 79.3086 3.68115 80.522 3.41797C80.5157 3.4148 80.5094 3.41163 80.5031 3.40847ZM212.907 2.59568C212.625 2.65212 212.343 2.70856 212.06 2.765C212.771 2.64646 213.481 2.52792 214.192 2.40937C213.061 2.61149 211.93 2.81361 210.799 3.01572C211.004 2.95081 211.21 2.88589 211.416 2.82098C211.913 2.74588 212.41 2.67078 212.907 2.59568ZM209.245 3.29319C211.221 2.91416 209.169 3.36835 208.67 3.43005C208.371 3.46694 209.044 3.33195 209.245 3.29319ZM204.093 4.20988C205.007 3.99263 206.87 3.64139 206.224 3.85497C205.22 3.99908 204.584 4.15405 203.134 4.3998C203.342 4.34316 203.55 4.28652 203.757 4.22989C203.758 4.2297 203.759 4.22952 203.76 4.22934C203.871 4.22285 203.982 4.21637 204.093 4.20988ZM210.139 3.07011C211.444 2.87978 207.69 3.56257 208.862 3.30844C208.917 3.29656 210.087 3.07767 210.139 3.07011ZM23.4183 1.89047C23.3035 1.93509 23.8559 1.83708 24.2717 1.76148C24.4018 1.73781 24.5186 1.71699 24.5979 1.7033C26.0455 1.44794 27.9175 1.20471 29.4443 1.11639C29.3287 1.11395 29.2132 1.11198 29.0976 1.11047C27.4772 1.22686 25.8634 1.43459 24.2662 1.73238C23.9836 1.78508 23.701 1.83777 23.4183 1.89047ZM34.2242 1.07469C35.2735 1.12354 36.3211 1.21064 37.3641 1.33576C37.4612 1.34687 37.9203 1.3795 37.5821 1.33036C36.4663 1.20156 35.3458 1.11627 34.2242 1.07469ZM98.6249 1.08196C97.8204 1.02004 100.144 1.06855 100.032 1.16477C99.5634 1.12952 99.0943 1.10192 98.6249 1.08196ZM106.044 2.03225C105.549 1.94863 105.054 1.86501 104.558 1.78139C104.56 1.77089 104.561 1.76039 104.562 1.74989C105.056 1.84401 105.55 1.93813 106.044 2.03225ZM19.3785 2.62356C19.908 2.56142 21.1544 2.32298 21.9325 2.17841C21.391 2.24797 20.1167 2.50149 19.3785 2.62356ZM86.6402 2.07691C86.7084 2.08921 83.5762 2.66792 84.6522 2.42286C85.3149 2.30755 85.9775 2.19223 86.6402 2.07691ZM80.2737 3.22891C80.9443 3.09818 81.466 3.00934 81.335 3.07316C80.9786 3.13805 80.6222 3.20293 80.2658 3.26782C80.2685 3.25485 80.2711 3.24188 80.2737 3.22891ZM200.569 4.79301C199.445 5.00342 198.313 5.16872 197.175 5.2883C197.216 5.27349 197.257 5.25862 197.298 5.24369C198.394 5.12516 199.484 4.9642 200.567 4.76133C200.568 4.77189 200.568 4.78245 200.569 4.79301ZM18.7211 2.64986C17.9452 2.8018 17.1693 2.95373 16.3933 3.10567C17.1725 2.96735 17.9516 2.82903 18.7308 2.69071C18.7282 2.67691 18.7256 2.66311 18.7231 2.64931C18.7224 2.6495 18.7218 2.64968 18.7211 2.64986ZM216.046 1.76337C213.302 2.23621 215.489 1.78635 216.978 1.52912C217.375 1.46047 217.723 1.41147 217.919 1.39473C217.92 1.39451 217.921 1.39428 217.922 1.39406C218.004 1.3871 217.837 1.44568 217.974 1.43593C217.644 1.4767 217.315 1.52128 216.986 1.56969C216.957 1.5739 216.928 1.57812 216.9 1.58233C216.582 1.65938 216.264 1.73642 215.946 1.81347C215.839 1.82649 215.732 1.83951 215.625 1.85253C215.766 1.82281 215.906 1.79309 216.046 1.76337ZM230.3 1.15057C233.489 1.61497 230.222 1.17312 228.638 0.99924C228.65 0.981471 230.006 1.10747 230.3 1.15057ZM221.871 0.948321C221.365 0.991449 220.861 1.04343 220.357 1.10424C220.291 1.10231 220.226 1.10054 220.16 1.09891C220.547 1.0471 220.934 1.00047 221.322 0.959052C221.505 0.954316 221.688 0.950735 221.871 0.948321ZM205.511 3.58105C204.714 3.71996 203.718 4.00608 206.266 3.50394C206.263 3.4938 206.259 3.48367 206.256 3.47353C206.155 3.49419 205.858 3.55968 205.842 3.56195C205.794 3.56809 205.843 3.52313 205.511 3.58105ZM236.197 1.88539C236.287 1.89811 236.356 1.79771 237.263 2.08437C237.545 2.12988 237.827 2.1754 238.109 2.22091C238.177 2.25857 238.245 2.29624 238.313 2.3339C237.231 2.11234 237.106 2.13963 237.027 2.12598C236.666 2.06311 236.937 2.08792 236.705 2.04406C236.103 1.9309 234.733 1.69249 235.367 1.73663C235.595 1.75266 236.107 1.87267 236.197 1.88539ZM234.085 1.42645C234.215 1.46019 233.785 1.41296 233.882 1.44059C233.968 1.46476 235.271 1.74193 234.907 1.72986C234.692 1.68743 234.478 1.64501 234.263 1.60258C234.193 1.57416 234.123 1.54573 234.053 1.51731C233.842 1.49212 233.631 1.46693 233.421 1.44173C233.296 1.40462 233.119 1.3563 232.987 1.31636C232.792 1.25789 232.693 1.21747 232.998 1.25559C233.059 1.26323 233.136 1.27407 233.231 1.28862C233.154 1.27496 233.077 1.2613 233 1.24764C232.746 1.20271 232.492 1.16006 232.237 1.11963C232.062 1.10816 231.887 1.09775 231.712 1.08841C231.806 1.0757 231.901 1.0633 231.996 1.05121C232.332 1.10553 232.668 1.16378 233.004 1.22596C233.364 1.29279 233.724 1.35962 234.085 1.42645ZM244.184 3.32329C244.142 3.32968 244.1 3.33607 244.057 3.34246C245.259 3.54031 247.124 3.87861 246.05 3.76747C244.427 3.4719 242.805 3.17633 241.182 2.88076C241.077 2.85027 240.971 2.81979 240.865 2.78931C242.067 3.05517 241.725 2.8152 242.768 3.06053C242.944 3.10193 242.418 3.0653 243.54 3.23545C243.503 3.21418 243.466 3.19291 243.429 3.17164C243.681 3.22219 243.932 3.27274 244.184 3.32329ZM254.468 5.26537C252.422 4.86274 254.689 5.23392 255.059 5.34644C255.059 5.34632 255.058 5.3462 255.057 5.34608C256.073 5.6543 253.854 5.18253 253.717 5.15785C253.536 5.12509 253.1 5.12846 252.139 4.82522C252.915 4.97194 253.691 5.11866 254.468 5.26537ZM247.782 3.99546C247.955 4.02491 247.855 4.02794 247.93 4.04152C247.93 4.04164 247.931 4.04176 247.932 4.04188C249.029 4.24226 251.642 4.71083 251.912 4.83084C251.099 4.68482 247.463 4.02086 247.252 3.93415C247.429 3.95458 247.605 3.97502 247.782 3.99546ZM240.055 2.60404C239.39 2.43477 240.907 2.71209 241.3 2.80647C241.374 2.82485 240.744 2.77941 240.055 2.60404ZM188.024 4.66444C186.554 4.51214 188.479 4.77385 187.806 4.73433C188.087 4.76449 188.369 4.79182 188.65 4.81633C188.441 4.76726 188.232 4.71663 188.024 4.66444ZM120.179 4.01305C119.835 3.94372 119.994 3.99926 119.963 3.99403C119.737 3.95097 119.527 3.89067 119.439 3.87656C117.822 3.61704 118.888 3.83794 118.904 3.84585C118.933 3.87692 118.505 3.82683 119.086 3.96455C119.443 4.02224 119.8 4.07993 120.158 4.13761C120.332 4.18433 120.506 4.23105 120.68 4.27777C120.745 4.28708 120.796 4.29406 120.835 4.299C121.005 4.31984 120.956 4.30283 120.84 4.27259C120.688 4.23293 120.421 4.17084 120.371 4.14078C120.334 4.11786 121.002 4.22363 120.179 4.01305ZM185.421 4.1969C185.336 4.19739 185.211 4.19147 185.106 4.18928C184.916 4.18474 184.793 4.19404 185.089 4.2777C185.107 4.28287 185.127 4.28832 185.149 4.29404C185.149 4.29416 185.15 4.29428 185.151 4.2944C185.254 4.32241 185.682 4.40282 185.812 4.43569C186.762 4.52876 186.407 4.41842 185.421 4.1969ZM126.493 4.7248C127.062 4.76352 127.632 4.79067 128.202 4.80623C128.192 4.83262 128.182 4.85902 128.172 4.88541C127.866 4.87525 127.561 4.86176 127.256 4.84495C127.148 4.85364 127.041 4.86191 126.933 4.86977C127.311 4.91488 127.69 4.95489 128.07 4.98976C128.529 4.98482 128.987 4.97241 129.445 4.95254C129.234 4.94284 129.024 4.93157 128.813 4.91872C129.931 4.88964 129.689 4.95753 130.617 4.94412C130.933 4.90435 131.248 4.86102 131.562 4.81417C132.022 4.80636 132.482 4.79101 132.942 4.7681C133.708 4.67395 133.773 4.64358 133.254 4.67578C133.631 4.6014 134.054 4.59997 134.51 4.52207C134.547 4.51567 134.472 4.4958 134.505 4.49071C135.439 4.34888 135.981 4.25442 136.322 4.20418C136.854 4.12391 136.905 4.14487 137.136 4.10368C137.407 4.05553 138.475 3.80152 138.488 3.78037C138.505 3.75228 136.245 4.07547 139.755 3.41728C137.928 3.69022 135.877 4.14286 137.229 3.99057C137.058 4.0195 136.716 4.08359 136.314 4.16016C135.382 4.34325 134.114 4.52911 134.001 4.53906C133.768 4.56435 133.845 4.51732 133.553 4.55152C133.381 4.56796 132.934 4.72333 131.558 4.75097C131.384 4.77736 131.21 4.80267 131.035 4.82689C130.87 4.82494 130.705 4.82202 130.541 4.81812C130.877 4.76132 131.212 4.70047 131.546 4.63563C130.213 4.77451 129.101 4.7054 128.287 4.77049C127.583 4.75614 127.241 4.73297 127.545 4.70604C127.333 4.70078 127.122 4.69393 126.911 4.68548C126.772 4.69928 126.633 4.71238 126.493 4.7248ZM181.063 3.44838C180.365 3.27633 180.095 3.31609 180.204 3.34151C180.817 3.4841 181.426 3.5379 181.063 3.44838ZM121.439 4.29199C122.199 4.44604 122.963 4.57922 123.732 4.69125C123.735 4.66342 123.738 4.6356 123.741 4.60777C122.971 4.52374 122.203 4.41844 121.439 4.29199ZM188.246 4.62595C188.314 4.65459 188.383 4.68306 188.452 4.71137C189.303 4.72458 190.136 4.88979 190.557 4.88909C190.648 4.88897 190.467 4.84242 190.294 4.82393C190.185 4.82193 188.395 4.64508 188.246 4.62595ZM223.823 0.389196C223.494 0.411847 223.165 0.438202 222.837 0.468247C222.854 0.443772 222.871 0.419306 222.888 0.394851C223.05 0.382768 223.213 0.371588 223.376 0.361313C223.525 0.369848 223.674 0.379142 223.823 0.389196ZM220.086 0.683864C219.502 0.747304 218.919 0.822487 218.338 0.909356C220.555 0.577831 218.73 0.81256 220.078 0.615628C220.081 0.638373 220.083 0.661119 220.086 0.683864ZM214.265 1.60272C214.332 1.57586 214.399 1.549 214.466 1.52215C215.032 1.4164 215.599 1.31066 216.165 1.20492C215.798 1.22367 215.431 1.24243 215.064 1.26118C214.856 1.29981 214.649 1.33844 214.441 1.37707C214.383 1.45229 214.324 1.5275 214.265 1.60272ZM104.905 1.05327C104.824 1.03798 104.696 1.01624 104.547 0.992275C104.055 0.910963 103.346 0.824905 103.384 0.843718C103.767 0.919611 104.149 1.00056 104.53 1.08656C104.648 1.1135 104.767 1.14044 104.886 1.16738C104.893 1.14021 104.901 1.11304 104.908 1.08587C104.976 1.11266 105.043 1.13946 105.11 1.16626C105.394 1.20847 105.677 1.25069 105.96 1.29291C106.097 1.34351 106.235 1.39411 106.372 1.44471C106.519 1.44377 106.667 1.44284 106.815 1.4419C105.465 1.13941 105.503 1.19694 105.221 1.14363C105.077 1.11663 104.99 1.0826 104.941 1.06451C104.929 1.06076 104.917 1.05701 104.905 1.05327ZM121.995 4.20306C121.586 4.13604 121.222 4.07572 120.888 4.01862C119.901 3.84964 119.16 3.74075 118.298 3.53301C118.604 3.64659 119.646 3.84934 120.877 4.07799C122.531 4.39552 124.557 4.59701 125.537 4.72425C125.715 4.71602 125.892 4.70667 126.07 4.69618C125.144 4.65865 124.508 4.5501 124.061 4.4958C123.705 4.45157 123.739 4.47672 123.712 4.47348C123.711 4.47333 123.71 4.47318 123.708 4.47303C122.876 4.36358 122.622 4.30319 121.995 4.20306ZM189.448 4.63689C189.019 4.57075 188.267 4.49522 188.253 4.54165C188.671 4.60169 189.089 4.65547 189.509 4.70294C189.424 4.6836 189.521 4.64851 189.448 4.63689ZM213.582 1.59198C213.239 1.63991 212.438 1.80362 212.792 1.78026C212.856 1.77596 213.651 1.59744 213.195 1.75974C213.975 1.61296 213.777 1.56482 213.582 1.59198ZM149.539 1.63799C149.825 1.58317 150.111 1.52834 150.397 1.47351C150.46 1.44174 150.523 1.40997 150.586 1.3782C150.237 1.4648 149.888 1.5514 149.539 1.63799ZM193.097 4.73945C193.476 4.83354 194.12 4.72966 194.831 4.7746C195.093 4.76277 195.355 4.74849 195.617 4.73175C195.618 4.73171 195.618 4.73167 195.619 4.73163C195.624 4.70497 195.63 4.67831 195.635 4.65165C194.79 4.70652 193.944 4.7358 193.097 4.73945ZM131.759 4.65692C131.935 4.65586 132.11 4.65371 132.286 4.65045C132.595 4.60883 132.904 4.56377 133.212 4.5153C133.044 4.52375 132.875 4.53116 132.706 4.53756C132.391 4.58092 132.075 4.62071 131.759 4.65692ZM197.686 4.45081C196.776 4.53962 196.44 4.65584 197.606 4.53232C198.097 4.4753 198.64 4.34648 197.686 4.45081ZM86.7262 1.32659C87.0436 1.27457 87.361 1.22255 87.6784 1.17054C87.7828 1.13316 87.8872 1.09577 87.9916 1.05839C87.5698 1.14779 87.148 1.23719 86.7262 1.32659ZM217.987 0.793604C217.951 0.817078 217.916 0.840597 217.881 0.864156C217.591 0.90789 217.301 0.954548 217.012 1.0041C217.081 0.973595 217.151 0.943259 217.22 0.913091C217.475 0.871016 217.731 0.831176 217.987 0.793604ZM88.8663 0.940629C89.126 0.898516 89.3859 0.858761 89.6463 0.821323C89.8195 0.78551 89.9929 0.750727 90.1667 0.716986C89.9218 0.743808 89.6771 0.772681 89.4326 0.803633C89.2434 0.848065 89.0547 0.893728 88.8663 0.940629ZM206.376 2.93686C206.017 2.98238 204.612 3.31191 205.892 3.0899C206.708 2.9484 206.43 2.93008 206.376 2.93686ZM208.285 2.55886C206.926 2.77176 207.977 2.78332 209.566 2.35185C207.945 2.67302 208.365 2.54641 208.285 2.55886ZM220.265 0.351127C220.3 0.347615 220.333 0.372997 220.615 0.345845C221.631 0.244805 222.978 0.181565 223.708 0.16629C225.464 0.0237456 230.839 0.41013 231.439 0.662958C231.566 0.699799 231.261 0.708566 231.313 0.719119C231.466 0.746627 232.356 0.863829 232.186 0.876674C231.318 0.731955 230.446 0.613245 229.571 0.520807C229.789 0.515865 230.007 0.51256 230.225 0.510871C228.04 0.287881 228.761 0.378635 228.128 0.383111C227.76 0.333104 227.39 0.287736 227.02 0.247038C226.211 0.23274 225.402 0.240765 224.594 0.271028C224.777 0.251978 224.96 0.23407 225.144 0.217308C223.925 0.187757 224.263 0.211173 223.598 0.26939C223.596 0.251924 223.594 0.234458 223.593 0.216992C222.418 0.300871 222.188 0.275302 221.93 0.289638C221.402 0.332222 220.754 0.558494 218.736 0.627098C217.912 0.848279 217.9 0.650234 217.424 0.834411C215.989 0.979178 218.688 0.519005 219.978 0.399897C219.979 0.39982 219.979 0.399743 219.98 0.399667C220.077 0.389192 219.921 0.387088 220.265 0.351127ZM213.099 1.65696C213.916 1.41178 210.621 2.01845 211.735 1.9441C211.898 1.91799 212.062 1.89188 212.225 1.86577C212.517 1.79605 212.809 1.72632 213.101 1.65659C213.101 1.65672 213.1 1.65684 213.099 1.65696ZM182.384 3.42734C179.327 2.89444 181.052 3.26982 182.094 3.41247C182.302 3.441 182.417 3.44842 182.384 3.42734ZM119.717 3.7216C119.67 3.72402 119.623 3.72643 119.577 3.72885C119.941 3.79315 120.424 3.88644 120.896 3.97655C121.729 4.1374 122.53 4.25277 122.519 4.20336C121.979 4.12591 121.44 4.03786 120.902 3.93929C120.507 3.86672 120.112 3.79416 119.717 3.7216ZM127.699 4.59696C127.482 4.59068 126.595 4.54567 126.701 4.57647C127.085 4.61334 127.469 4.64493 127.854 4.67121C128.034 4.66214 128.213 4.65193 128.393 4.64056C128.142 4.63574 127.758 4.59968 127.699 4.59696Z" fill="white"/>
</svg>
